<?xml version="1.0" encoding="utf-8"?>
<!-- Generator: Adobe Illustrator 25.0.1, SVG Export Plug-In . SVG Version: 6.00 Build 0)  -->
<svg version="1.1" id="Layer_1" xmlns="http://www.w3.org/2000/svg" xmlns:xlink="http://www.w3.org/1999/xlink" x="0px" y="0px"
	 viewBox="0 0 1920 400" style="enable-background:new 0 0 1920 400;" xml:space="preserve">
<style type="text/css">
	.st0{opacity:0.4;clip-path:url(#SVGID_2_);fill:#C0DBC7;}
	.st1{clip-path:url(#SVGID_2_);}
	.st2{opacity:0.5;fill:#D1D9ED;}
	.st3{opacity:0.4;fill:#C0DBC7;}
	.st4{opacity:0.4;}
	.st5{fill:#D1D9ED;}
	.st6{fill:#D5E4F9;}
	.st7{fill:#F1E8EA;}
	.st8{fill:#FFD4E0;}
	.st9{fill:#C3B6BA;}
	.st10{fill:#F6E5DD;}
	.st11{fill:#919FB8;}
	.st12{fill:#CAF3DF;}
	.st13{fill:#EBD3AB;}
	.st14{fill:none;stroke:#919FB8;stroke-width:1.312;stroke-miterlimit:10;}
	.st15{fill:#B8988C;}
	.st16{fill:#FFD4AE;}
	.st17{fill:#FFC99D;}
	.st18{fill:#F4C46D;}
	.st19{fill:#D7AF42;}
	.st20{fill:url(#SVGID_3_);}
	.st21{clip-path:url(#XMLID_3_);}
	.st22{clip-path:url(#XMLID_4_);fill:#B8988C;}
	.st23{fill:#ECE8CA;}
</style>
<g>
	<defs>
		<rect id="SVGID_1_" width="1920" height="400"/>
	</defs>
	<clipPath id="SVGID_2_">
		<use xlink:href="#SVGID_1_"  style="overflow:visible;"/>
	</clipPath>
	<path class="st0" d="M890.4,330.5c0,0,589.5,41.9,753.1,12.2c163.6-29.7,323.1-14.9,323.1-14.9l-10.8,62.2
		c0,0-574.6-32.4-755.8-24.3C1018.9,373.8,890.4,330.5,890.4,330.5z"/>
	<g class="st1">
		<path class="st2" d="M1986.2,336.9c-1.9,1.3-34-15.1-58.8-17.7c-24.8-2.5-67.1,2.3-76.6-5.3c-9.5-7.6-17.1-15.2-17.1-15.2
			s0,12.7-14,14.6c-14,1.9,3.2-18.4-5.1-23.5c-8.3-5.1-9.5-1.3-12.1-8.9c-2.5-7.6-8.3-8.9-11.4-13.3c-3.2-4.4,3.8-10.8-3.8-9.5
			c-7.6,1.3-8.3-3.2-14.6,11.4c-6.3,14.6-19.7,29.8-32.4,36.8c-12.7,7-13.3,5.7-19.7,10.2c-6.3,4.4,1.9-5.7,12.7-14
			c10.8-8.3,19.7-14.6,15.9-16.5c-3.8-1.9-14,2.5-20.9,0.6c-7-1.9-3.2-11.4,3.2-12.1c6.3-0.6,9.5-0.6,6.3-7.6c-3.2-7,0-10.8-1.9-14
			c-1.9-3.2-4.4-3.2-9.5-10.8c-5.1-7.6-6.3-12.7-6.3-12.7s-8.9,7.6-14.6,15.9s-20.3,12.1-20.3,12.1s11.4,8.3,5.7,10.8
			c-5.7,2.5-7-4.4-9.5,6.3s-32.4,31.7-37.5,34.3s8.3-4.4,7-10.8c-1.3-6.3-7.6-8.9,3.8-15.2c11.4-6.3,15.9-8.3,15.2-13.3
			s0.6-11.4-1.3-10.8c-1.9,0.6-12.7,15.9-23.5,18.4s-22.9-5.1-23.5,0c-0.6,5.1-5.1,16.5-8.3,20.3c-3.2,3.8,1.9,11.4-7,16.5
			c-8.9,5.1-6.3-8.3-12.1-3.8c-5.7,4.4-24.2,9.5-36.9,11.4c-12.7,1.9-44.2,2.3-44.2,2.3s20.8,2.2,48.7-11.7
			c27.9-14,43.8-30.5,49.5-36.2c5.7-5.7,7-5.7,12.7-4.4c5.7,1.3,18.4,2.5,25.4-2.5c7-5.1,17.1-26.7,22.2-23.5
			c5.1,3.2,10.2,10.8,14,8.9c3.8-1.9,17.1-16.5,22.9-23.5s8.9-17.8,15.9-12.7c7,5.1,21.6,12.7,34.3,22.9
			c12.7,10.2,20.3,15.9,20.3,15.9s2.5-8.3,12.7-2.5c10.2,5.7,18.9,12.7,35.5,21.6c97.9,52.5,105.9-1.2,112.2,3.9
			c6.3,5.1,15.2,7.6,21.9,28.6C1967.2,326.4,1986.2,336.9,1986.2,336.9z"/>
		<path class="st3" d="M799.9,279.2c0,0,267.7-13.5,616.5,31.1c133.4,17.1,249.8,36,324.5,32.4c198.7-9.5,269,36.5,269,36.5
			s-263.6-12.2-616.5-9.5c-210.1,1.6-429.3-47.1-581.4-36.5L799.9,279.2z"/>
		<path class="st3" d="M692.6,303.3c-9.2-2.6-53.5-15.6-101-45c-115.5-71.5-150.4-11.8-192.4-4.8c-42,7-102.8,51.6-102.8,51.6
			L692.6,303.3z"/>
		<path class="st3" d="M131.5,303.3c-9.2-2.6-53.5-15.6-101-45C-85,186.7-120,246.4-161.9,253.4c-42,7-102.8,51.6-102.8,51.6
			L131.5,303.3z"/>
		<path class="st3" d="M625.1,302.5c-13.2-3.8-148.2-24-217.2-64.8C142.1,80.4-108,138.9-108,138.9l-4.7,166.2L625.1,302.5z"/>
		<g class="st4">
			<path class="st5" d="M1758.6,159.6c11.9,0,21.6,3.1,21.6,6.9c0,1.4-1.2,2.6-3.4,3.7c3.8-0.5,7.9-0.7,12.2-0.7c0.4,0,0.8,0,1.2,0
				c-0.1-0.3-0.2-0.7-0.2-1c0-4.9,6.6-8.8,14.7-8.8c7.6,0,13.7,3.4,14.6,7.9c0.1,0,0.1,0,0.2,0c9.2,0,16.9,2.5,19,6
				c1.2,0,2.4-0.1,3.6-0.1c14.6,0,26.5,3.5,26.5,7.9c0,4.3-11.9,7.9-26.5,7.9c-11.3,0-20.9-2.1-24.7-5c-5.5,3-16.1,5-28.3,5
				c-17.9,0-32.4-4.4-32.4-9.8c0-2.3,2.6-4.4,7-6.1c-1.6,0.1-3.3,0.2-5,0.2c-11.9,0-21.6-3.1-21.6-6.9S1746.7,159.6,1758.6,159.6z"
				/>
			<ellipse class="st5" cx="1729.2" cy="173.3" rx="5.9" ry="2"/>
		</g>
		<g class="st4">
			<path class="st5" d="M1189.8,136.6c-5,0-15.8,0-19.2,0c-3.2,0-5.7-1.7-6.1-3.9c0,0,0,0-0.1,0c-3.8,0-7-1.2-7.9-2.9
				c-0.5,0-1,0-1.5,0c-6.1,0-11-1.7-11-3.8c0-2.1,4.9-3.8,11-3.8c4.7,0,17,0,22.1,0c7.4,0,13.5,2.2,13.5,4.8c0,1.1-1.1,2.2-2.9,3
				c0.7-0.1,1.4-0.1,2.1-0.1c5,0,9,1.5,9,3.4C1198.8,135.1,1194.8,136.6,1189.8,136.6z"/>
		</g>
		<g class="st4">
			<path class="st5" d="M433,117.4c8,0,14.4,2.1,14.4,4.6c0,0.9-0.8,1.7-2.2,2.5c2.5-0.3,5.3-0.5,8.2-0.5c0.3,0,0.5,0,0.8,0
				c0-0.2-0.1-0.4-0.1-0.7c0-3.3,4.4-5.9,9.8-5.9c5.1,0,9.2,2.3,9.7,5.3c0,0,0.1,0,0.1,0c6.2,0,11.3,1.7,12.7,4
				c0.8,0,1.6-0.1,2.4-0.1c9.8,0,17.7,2.3,17.7,5.2s-7.9,5.2-17.7,5.2c-7.5,0-14-1.4-16.5-3.4c-3.7,2-10.8,3.4-18.9,3.4
				c-12,0-21.6-2.9-21.6-6.6c0-1.5,1.8-2.9,4.7-4.1c-1.1,0.1-2.2,0.1-3.4,0.1c-8,0-14.4-2.1-14.4-4.6
				C418.6,119.5,425.1,117.4,433,117.4z"/>
			<ellipse class="st5" cx="413.4" cy="126.6" rx="3.9" ry="1.3"/>
		</g>
		<g class="st4">
			<path class="st5" d="M264.4,140.1c-5,0-15.8,0-19.2,0c-3.2,0-5.7-1.7-6.1-3.9c0,0,0,0-0.1,0c-3.8,0-7-1.2-7.9-2.9
				c-0.5,0-1,0-1.5,0c-6.1,0-11-1.7-11-3.8c0-2.1,4.9-3.8,11-3.8c4.7,0,17,0,22.1,0c7.4,0,13.5,2.2,13.5,4.8c0,1.1-1.1,2.2-2.9,3
				c0.7-0.1,1.4-0.1,2.1-0.1c5,0,9,1.5,9,3.4C273.4,138.6,269.4,140.1,264.4,140.1z"/>
		</g>
		<g>
			<path class="st6" d="M527.2,295.2c-0.7-0.1-2.6-0.2-4.7,0l0.4-0.5c0,0-4.1-1.8-6.6-1.2c-2.5,0.7-5.3,4.6-1.3,10.6l0.2-0.3
				c0.2,0.4,0.4,0.8,0.7,1.2c2.1,3,6.4,2,6.4,2l1.1,0.1l4.9-0.9l3.1-3l0.5-7.2C531.8,296,528.5,295.5,527.2,295.2z"/>
			<g>
				<path class="st7" d="M586.9,290.6c-1.5-11-21.4-21-21.4-21s-2.4,0-7,3.6c-4.6,3.6-9.4,0-9.4,0s-9.3,6.3-16,10.1
					c-6.7,3.8-11.2,10.4-11.2,10.4l2.4,1.5l7.5,0.8l-0.5,7.2l-2.7,3.8l27.3,5.9l8.9,9.7c0,0,1.5,1.3,7.8,10.6
					c6.4,9.3,7.1,10.4,7.4,10.4c0.4,0,1.5-4.4,3.6-18.2C585.9,311.7,588.4,301.6,586.9,290.6z M543.1,296.1c0,0-4.6-2.5-2.2-3.6
					c2.4-1.1,4-2,4-2l0.6,5.4L543.1,296.1z"/>
				<path class="st8" d="M566.1,324.1L555.4,312l-21.3-3.2l-6.8-2.3c0,0-6.4,1.1-8.3,0.9c-1.8-0.2-5-5.4-5-5.4s0,0-0.4,0.9
					c-0.4,0.9-1.8,11.9-1.7,13c0.2,1.1-1.5,3.4-2.7,4.2c-1.3,0.8,0.3,3.1,0.3,3.1l5.8,0.9l4.7,1.4l15.9,1.4c0.1,0.2,0.2,0.4,0.4,0.7
					l-1.2,6.3c0,0,5.3,16.3,14.9,19.7l0.1-0.7c4.5,4.4,10.7,2.8,18.5,0.8c8.2-2.1,11.4-9.4,11.4-10.2L566.1,324.1z"/>
				<path class="st9" d="M536.5,327l-16.4-1.5l0,0.1l-2.8-1.6l-9.4-1.6c0,0,1.2,14.9,0.1,19.1c-1.1,4.2-2.3,3.8-5.3,6.5
					c-3.1,2.6-5.3,3.2-8.3,3.8c-2.1,0.5-4.3-0.1-4.3,2l-0.5,3c0,0,7.5,2.9,10.3,1.3c1.7-1,0.9,3.4,2.4,3.3c0,0.7,0.2,1.3,0.8,1.5
					c1.6,0.5,7,0.8,9.4,0.6c2.4-0.1,5.6-1.2,9-3.9c4-3.2,4.1-2.1,4.8-2.1c0.7,0,3.8-2,3.8-2l1.2-5.2
					C531.4,350.5,535.7,331,536.5,327z"/>
				<path class="st10" d="M549.1,273.3l1-3c0,0-3.2-4.6-3.2-8.4c0-3.8-0.2-10.8-0.2-10.8s8.9-9.7,13-8.2s8.7,8.9,8.9,12
					c0.2,3.1-0.2,9-1.5,9.5c-1.3,0.5-2,0.3-2.6,0.7s-0.7,0.3-0.7,0.3l1,5.4C564.9,270.7,555.1,280.9,549.1,273.3z"/>
				<path class="st11" d="M564.5,260.6c0,0-0.6,1.8,1.1,1.8c1.8,0,2.6-4.5,2.6-6.6c0-2.1-1.9-2-1.9-2s-4.1-5-6-10.6
					c0,0-2.1,0.6-2.3,2.9c-0.2,2.3-3.4,3.9-5.3,4.5c-1.9,0.6-1.9,0.6-1.9,0.6s3.1-1.6,3.9-2.9c0.8-1.3-0.6,0.5-2.6,1
					c-1.9,0.5-5.5,1.9-5.5,4.2c0,0-1.9-9.5,2.4-14.1c5.7-6.1,23.8-3.5,23.6,11.5c-0.1,5.9-3.7,10-3.7,10s10.4,4.7,11.7,9.2
					c1.3,4.6,10.1-4,11.6,1.9c1.5,6,6.9,1.9,7.3,11c0.4,9-0.6,15.9-12.1,14.6c0,0,0.2-10.4-5-15.6c-5.2-5.2-14.9-11.5-14.9-11.5
					l-2.6,0.1l-2.6-4.1L564.5,260.6z"/>
			</g>
		</g>
		<g>
			<path class="st12" d="M302.8,317.8c2.3,15.2,3.5,20.2,3.9,20.2c0.4,0,1.2-1.3,8.1-11.6c7-10.3,8.6-11.8,8.6-11.8l9.7-10.7
				l29.8-6.6l-2.9-4.2l-0.6-8l8.1-0.8l2.6-1.6c0,0-4.9-7.4-12.2-11.6c-7.3-4.2-17.4-11.2-17.4-11.2s-5.3,4-10.3,0
				c-5-4-8.3-5.3-8.3-5.3s-21.1,12.5-22.7,24.7C297.7,291.4,300.4,302.6,302.8,317.8z M340.9,286.5l0.6-7.8c0,0,5,2.4,7.6,3.6
				c2.6,1.2-0.2,3.6-0.2,3.6L340.9,286.5z"/>
			<path class="st6" d="M322,316.4l11.6-13.4l23.3-3.6l7.4-2.6c0,0,7,1.2,9,1c2-0.2,5.4-6,5.4-6s0,0,0.4,1c0.4,1,2,13.2,1.8,14.4
				c-0.2,1.2,1.6,3.8,3,4.7c1.4,0.9-0.3,3.5-0.3,3.5l-6.3,1l-5.2,1.6l-17.3,1.6c-0.1,0.2-0.2,0.5-0.4,0.8l1.3,7
				c0,0-5.8,18.2-16.3,21.9l-0.1-0.7c-4.9,4.9-11.6,3.1-20.2,0.9c-9-2.3-12.5-10.5-12.5-11.3L322,316.4z"/>
			<path class="st9" d="M354.3,319.6l17.9-1.6l0,0.1l3-1.7l10.7-1.7c0,0-1.3,16.6-0.1,21.2c1.2,4.6,2.2,3.9,5.5,6.8
				c3.3,2.9,4.6,6.1,6.7,7.3c2,1.2,6.7,3.3,6.7,5.7l0.5,3.3c0,0-2.4,4.2-5.2,5c-2.1,0.6-5.4,0.5-7,0.5c0,0.8-0.2,1.5-0.9,1.7
				c-1.7,0.6-11.6,0.9-14.2,0.7c-2.6-0.1-3.5-0.6-6.8-5.1c-3.3-4.5-7.3-10.5-8-10.5s-3.3-3.3-3.3-3.3l0.1-2.2
				C359.8,345.7,355.2,324.1,354.3,319.6z"/>
			<path class="st13" d="M364.5,284.3c0.7-0.1,2.8-0.2,5.1,0l-0.5-0.6c0,0,4.5-2,7.3-1.3c2.8,0.7,5.8,5.1,1.5,11.8l-0.2-0.3
				c-0.2,0.4-0.5,0.9-0.8,1.3c-2.3,3.3-7,2.2-7,2.2l-1.2,0.1l-5.4-1l-3.3-3.3l-0.6-8C359.4,285.1,363,284.6,364.5,284.3z"/>
			<g>
				<path class="st10" d="M320.4,235.2c0,0-0.6-7.8,4.6-9.2c5.2-1.4,17.8,3.4,17.8,3.4s3.3,21.8-2.3,28.9
					c-5.7,7.1-10.3,3.8-15.3-1.8l-2.4,0.1c0,0-0.4-4.9,0.3-10.2c0.7-5.2-0.3-1.2-1.7-2.9c0,0-3.7-2.9-3.5-5.1
					C318,236.2,320.4,235.2,320.4,235.2z"/>
				<path class="st10" d="M346.6,237.2c0.4,2-0.7,8.4-2.8,8.9v-9.4C343.9,236.6,346.2,235.2,346.6,237.2z"/>
			</g>
			<path class="st11" d="M321.8,236.3c0,0-3.1-1.6-4.2-3.8c-1.2-2.2,0.1-0.9,1.9-3.8c1.7-2.9-0.6-2.9-1.6-5.7
				c-1-2.8,4.6-2.6,4.8-4.4c0.1-1.7,2-1.3,4.2-3.1c2.2-1.7,1.2,0.6,3.9,0.4c2.8-0.1,0.6-1.3,3.3-3.1c2.8-1.7,4.1,5.4,7.3,4.8
				c3.2-0.6,0.9,1.7,2.9,2.6c2,0.9,0.7,1.7,2.2,4.2c1.5,2.5-0.4,2.6-1.2,5.2c-0.7,2.6-0.3,4.1-0.3,4.1l-1.9-0.8l-0.4-1.8
				c0,0-3-2-5.8-1.8c-2.8,0.2-4.4-1-6.6-0.2c-2.2,0.8-3.8-0.4-4.4,0.4c-0.6,0.8-2.2,1.4-2,2.4c0.2,1,0.6,6,0.2,7L321.8,236.3z"/>
		</g>
		<g>
			<path class="st14" d="M342.8,229.4c0,0,3.3,21.8-2.3,28.9c-5.7,7.1-13.7,1.7-16-5.4"/>
			<path class="st14" d="M345,234c0,0-0.4-1.5,0.3-4.1c0.7-2.6,2.6-2.8,1.2-5.2c-1.5-2.5-0.1-3.3-2.2-4.2c-2-0.9,0.3-3.2-2.9-2.6
				c-3.2,0.6-4.5-6.5-7.3-4.8c-2.8,1.7-0.6,2.9-3.3,3.1c-2.8,0.1-1.7-2.2-3.9-0.4c-2.2,1.7-4.1,1.3-4.2,3.1
				c-0.1,1.7-5.8,1.6-4.8,4.4c1,2.8,3.3,2.8,1.6,5.7c-1.7,2.9-3,1.6-1.9,3.8c1.2,2.2,4.2,3.8,4.2,3.8s-3.9-2.2-4.1,1.6
				c-0.1,3.8,2.2,3.8,3.6,5.5c1.5,1.7,2.5-2.3,1.7,2.9c-0.7,5.2-0.3,10.2-0.3,10.2"/>
			<path class="st14" d="M340.5,259.9c0,0,10.2,7,17.4,11.2c7.3,4.2,12.2,11.6,12.2,11.6"/>
			<path class="st14" d="M321.9,254.5c0,0-21.1,12.5-22.7,24.7c-1.6,12.2,1.2,23.4,3.5,38.6c2.3,15.2,3.5,20.2,3.9,20.2
				c0.4,0,1.2-1.3,8.1-11.6c7-10.3,8.6-11.8,8.6-11.8l9.7-10.7"/>
			<path class="st14" d="M306.7,338c0,0.9,3.5,9,12.5,11.3c9,2.3,16,4.2,20.9-1.6c4.9-5.8,11.8-22.8,12.8-24.5
				c1-1.7,2.3-4.4,2.3-4.4"/>
			<path class="st14" d="M355.8,327.3c0,0-5.8,18.2-16.3,21.9"/>
			<path class="st14" d="M351.1,304c0,0-1,3-1.9,5.2c-0.9,2.2,5.9-0.6,4.6,1.5c-1.3,2-6,4.5-2.8,5.7c3.2,1.2,2.3,2.5,2.3,2.5
				s0.7-1.3,1.6,3.2c0.9,4.5,4.8,23.7,4.8,23.7s4.2,4.9,7.4,8.4c3.2,3.5,7.4,9.3,9.7,10.5c2.3,1.2,14.2-1,14.2-1s4.6-3.9,0.4-7.7
				c-4.2-3.8-11.3-5.2-11.3-5.2l-6-5.8l-2.2-26.9c0,0-2.3,0.1-7.3,0.7c-4.9,0.6-7.3,0-7.3,0"/>
			<path class="st14" d="M371,297.9c0,0,0.4,3.2,0,5.1c-0.4,1.9,3.8,2.8,1.9,4.9c-1.9,2.2,0.7,4.2-0.3,5.1c-1,0.9-0.9,3.9-0.9,3.9"
				/>
			<path class="st14" d="M379.1,291.8c0,0,3.2,13.7,2.3,16.1c-0.9,2.5,3.2,2.3,2.5,3.9c-0.7,1.6-0.3,3.5-0.3,3.5"/>
			<path class="st14" d="M404.7,355.6l0.3,3.5c0,0-1.6,4.2-5.5,5.1c-3.9,0.9-6.1,0.1-6.1,0.1l-0.9-2.3
				C400.9,362,404.7,357.9,404.7,355.6c0-2.3-4.6-4.5-6.7-5.7c-2-1.2-3.3-4.4-6.7-7.3c-3.3-2.9-4.4-2.2-5.5-6.8
				c-1.2-4.6,0.1-21.2,0.1-21.2l-10.7,1.7"/>
			<path class="st14" d="M392.5,362c0,0,1.3,3.5-0.4,4.1c-1.7,0.6-11.6,0.9-14.2,0.7c-2.6-0.1-3.5-0.6-6.8-5.1
				c-3.3-4.5-7.3-10.5-8-10.5s-3.3-3.3-3.3-3.3l0.1-2.2"/>
			<path class="st14" d="M368.7,322.3c0,0-9.6-2.6-9.9,0.6c-0.3,3.2,7.1,0.4,10.7-2c3.6-2.5,13.9-2.3,7.6,0.7c-6.4,3.1-9,1.9-9,1.9"
				/>
			<line class="st14" x1="371.3" y1="325.8" x2="365.6" y2="327.4"/>
			<line class="st14" x1="371.9" y1="330.6" x2="366.2" y2="332.2"/>
			<line class="st14" x1="372.2" y1="335.1" x2="366.5" y2="336.7"/>
			<line class="st14" x1="372.3" y1="339.3" x2="366.7" y2="340.9"/>
			<path class="st14" d="M381.6,323c0,0-9.6-2.6-9.9,0.6c-0.3,3.2,7.1,0.4,10.7-2c3.6-2.5,13.9-2.3,7.6,0.7c-6.4,3.1-9,1.9-9,1.9"/>
			<line class="st14" x1="384.2" y1="326.5" x2="378.6" y2="328.1"/>
			<line class="st14" x1="384.8" y1="331.3" x2="379.1" y2="332.9"/>
			<line class="st14" x1="385.1" y1="335.8" x2="379.4" y2="337.4"/>
			<line class="st14" x1="385.2" y1="340" x2="379.6" y2="341.6"/>
			<path class="st14" d="M369.8,297.3c0,0,4.6,1.2,7-2.2c2.3-3.3,1.9-6.4-0.9-8.9c-2.8-2.5-10-2.3-11.5-2c-1.5,0.3-5.1,0.9-5.1,0.9
				l0.6,8l3.3,3.3l5.4,1"/>
			<path class="st14" d="M363.6,297.3c0,0-24.5,6.4-32.4,6.2c-7.8-0.1-26.9-7.1-26.9-7.1"/>
			<path class="st14" d="M359.4,284.4c0,0-24.1,3-24.5,2.9c-0.4-0.1-16.6-11.5-20-14.5c-3.5-3.1-4.2-3.6-4.2-3.6"/>
			<path class="st14" d="M340.9,285.7c0,0-0.4-12.9-0.3-15"/>
			<path class="st14" d="M341.5,278.9c0,0,10.2,2.8,9,4.2c-1.2,1.5-1.7,2.5-1.7,2.5"/>
			<path class="st14" d="M341.2,261.3c0,0-3.3,2.9-8,2.2c0,0,1.6,7.4,1.9,7.8c0.3,0.4,6.7-4.1,7.4-6.1"/>
			<path class="st14" d="M320.6,257c0,0-0.7,0.7,1.7,7.4c2.5,6.7,5.2,6.8,5.2,6.8l5.1-7.3c0,0-5.1-1.6-6.8-5.4"/>
			<path class="st14" d="M369.1,283.7c0,0,4.5-2,7.3-1.3c2.8,0.7,5.8,5.1,1.5,11.8"/>
			<path class="st14" d="M343.9,236.6c0,0,2.3-1.5,2.8,0.6c0.4,2-0.7,8.4-2.8,8.9"/>
			<path class="st14" d="M336.7,239.5l2.5,5.1c0,0,1.2,1.9-0.4,2.6c-1.6,0.7-3.3-0.7-3.3-0.7"/>
			<path class="st14" d="M333.1,238.5c0,0-2.5-1.2-6.1,0.3"/>
			<path class="st14" d="M342.4,239.3c0,0-2.8-0.9-4.9,0.3"/>
			<path class="st14" d="M340.5,252c0,0-0.4-1-2.3-1c-0.7,0-2.5,1.2-2.5,1.2s-1.5-1.6-2.3-1.3c-0.9,0.3-2,1-2.6,0.9"/>
			<path class="st14" d="M338.2,254.6c0,0-2,1.5-4.8-0.3"/>
			<path class="st14" d="M333,235c-0.7,0-3.6-1.6-5.8-0.6"/>
			<path class="st14" d="M337.9,236.8c0,0,3.3-2,5.1-1.2"/>
			<path class="st14" d="M329.5,239.1c0,0.5,0.4,0.9,0.9,0.9c0.5,0,0.9-0.4,0.9-0.9c0-0.5-0.4-0.9-0.9-0.9
				C329.9,238.2,329.5,238.6,329.5,239.1z"/>
			<path class="st14" d="M339.4,240c0,0.5,0.4,0.9,0.9,0.9c0.5,0,0.9-0.4,0.9-0.9c0-0.5-0.4-0.9-0.9-0.9
				C339.7,239.1,339.4,239.5,339.4,240z"/>
		</g>
		<g>
			<g>
				<path class="st14" d="M546.5,250.3c0,0,0.9,4.3,0.4,8.5c-0.5,4.2,0.3,7.6,3.2,11.5c2.7,3.6,10.3,0.8,12.4-5.7"/>
				<path class="st14" d="M549.5,272.7c0,0-9.2,6.3-15.8,10.1c-6.6,3.8-11,10.5-11,10.5"/>
				<path class="st14" d="M576.1,326.6c-6.3-9.3-11.1-4.3-11.1-4.3l-8.8-9.7"/>
				<path class="st14" d="M566.4,270.2c0,0,18.9,8.9,20.4,20c1.5,11.1-1.1,21.2-3.2,35c-2.1,13.8-3.2,18.3-3.6,18.3"/>
				<path class="st14" d="M580.1,343.5c0,0.8-3.2,8.2-11.3,10.3c-8.2,2.1-14.5,3.8-18.9-1.4c-4.5-5.3-10.7-20.7-11.6-22.2
					c-0.9-1.6-2.1-3.9-2.1-3.9"/>
				<path class="st14" d="M535.6,333.8c0,0,5.3,16.4,14.7,19.9"/>
				<path class="st14" d="M539.9,312.7c0,0,0.9,2.8,1.7,4.7c0.8,2-5.4-0.5-4.2,1.3c1.2,1.8,5.4,4.1,2.5,5.1
					c-2.9,1.1-2.1,2.2-2.1,2.2s-0.7-1.2-1.4,2.9c-0.8,4.1-4.3,21.4-4.3,21.4s-3.9,5.5-6.7,5.5c-4.3,0-8.6,3.5-10.7,4.5
					c-2.1,1.1-11.9,0.2-11.9,0.2s-4.2-3.6-0.4-7c3.8-3.4,11.2-1.3,11.2-1.3l5.3-2.8l2-24.3c0,0,2.1,0.1,6.6,0.7c4.5,0.5,6.6,0,6.6,0
					"/>
				<path class="st14" d="M521.8,307.2c0,0-0.4,2.9,0,4.6c0.4,1.7-3.4,2.5-1.7,4.5c1.7,2-0.7,3.8,0.3,4.6c0.9,0.8,0.8,3.6,0.8,3.6"
					/>
				<path class="st14" d="M514.5,301.7c0,0-2.9,12.4-2.1,14.6c0.8,2.2-2.9,2.1-2.2,3.6c0.7,1.4,0.3,3.2,0.3,3.2"/>
				<path class="st14" d="M490.1,353.3l-0.3,3.2c0,0,1.4,1.1,4.9,1.9c3.6,0.8,5.5,0.1,5.5,0.1l0.8-2.1
					C493.4,356.3,490.1,355.4,490.1,353.3c0-2.1,5-0.8,6.8-1.9c1.8-1.1,3.5-1,6.5-3.7c3-2.6,3.9-2,5-6.2c1.1-4.2-0.1-19.2-0.1-19.2
					l9.7,1.6"/>
				<path class="st14" d="M501.5,359.2c0,0,0.5,2.9,2.1,3.4c1.6,0.5,8.8,1.1,11.2,0.9c2.4-0.1,3.7-2.7,8.2-5.1c1.8-1,2.9-1,3.6-1
					c0.7,0,3.6-2.4,3.6-2.4l1.9-4.6"/>
				<path class="st14" d="M523.9,329.3c0,0,8.7-2.4,8.9,0.5c0.3,2.9-6.4,0.4-9.7-1.8c-3.3-2.2-12.6-2.1-6.8,0.7
					c5.8,2.8,8.2,1.7,8.2,1.7"/>
				<line class="st14" x1="521.6" y1="332.4" x2="526.7" y2="333.9"/>
				<line class="st14" x1="521" y1="336.8" x2="526.2" y2="338.2"/>
				<line class="st14" x1="520.8" y1="340.9" x2="525.9" y2="342.3"/>
				<line class="st14" x1="520.7" y1="344.7" x2="525.8" y2="346.1"/>
				<path class="st14" d="M512.2,329.9c0,0,8.7-2.4,8.9,0.5c0.3,2.9-6.4,0.4-9.7-1.8c-3.3-2.2-12.6-2.1-6.8,0.7
					c5.8,2.8,8.2,1.7,8.2,1.7"/>
				<line class="st14" x1="509.9" y1="333.1" x2="515" y2="334.6"/>
				<line class="st14" x1="510.1" y1="338.1" x2="514.5" y2="338.9"/>
				<line class="st14" x1="509.4" y1="342" x2="514.2" y2="343"/>
				<line class="st14" x1="508.9" y1="345.3" x2="514.1" y2="346.8"/>
				<path class="st14" d="M522.9,306.7c0,0-4.2,1.1-6.3-2c-2.1-3-1.7-5.8,0.8-8c2.5-2.2,9.1-2.1,10.4-1.8c1.3,0.3,4.6,0.8,4.6,0.8
					l-0.5,7.2l-3,3l-4.9,0.9"/>
				<path class="st14" d="M528.5,306.7c0,0,22.2,5.8,29.3,5.7c7.1-0.1,24.3-6.4,24.3-6.4"/>
				<path class="st14" d="M532.4,295c0,0,21.8,2.8,22.2,2.6c0.4-0.1,15-10.4,18.2-13.2c3.2-2.8,3.8-3.3,3.8-3.3"/>
				<path class="st14" d="M546.1,296.6c-3.9-6,2-8.1,1.6-14.2"/>
				<path class="st14" d="M545.1,289.8c0,0-5.8,2.6-4.7,4c1.1,1.3,1.6,2.2,1.6,2.2"/>
				<path class="st14" d="M549.7,272.7c0,0,1.6,4.4,5.8,3.8c0,0-3.6,5.3-3.9,5.7c-0.3,0.4-1.3-4.7-1.9-6.6"/>
				<path class="st14" d="M567.8,270.9c0,0-0.7-1.1-2.9,4.9c-2.2,6.1-7.5,6-7.5,6l-0.8-5.4c0,0,7.2-3.2,8.8-6.6"/>
				<path class="st14" d="M523.5,294.3c0,0-4.1-1.8-6.6-1.2c-2.5,0.7-5.3,4.6-1.3,10.7"/>
				<path class="st14" d="M552.9,254.3l-0.8,4.4c0,0-1.1,1.7,0.4,2.4c1.5,0.7,3-0.7,3-0.7"/>
				<path class="st14" d="M556.2,253.4c0,0,2.2-1.1,5.5,0.3"/>
				<path class="st14" d="M547.8,254c0,0,2.5-0.8,4.5,0.3"/>
				<path class="st14" d="M551.4,265.4c0,0,1.8,1.3,4.3-0.3"/>
				<path class="st14" d="M559.5,253.9c0,0.4-0.4,0.8-0.8,0.8c-0.4,0-0.8-0.4-0.8-0.8c0-0.4,0.4-0.8,0.8-0.8
					C559.1,253.1,559.5,253.5,559.5,253.9z"/>
				<path class="st14" d="M550.5,254.7c0,0.4-0.4,0.8-0.8,0.8c-0.4,0-0.8-0.4-0.8-0.8c0-0.4,0.4-0.8,0.8-0.8
					C550.2,253.9,550.5,254.3,550.5,254.7z"/>
			</g>
			<path class="st14" d="M587.4,297.7c11.4,1.3,12.5-5.6,12.1-14.6c-0.4-9-5.8-5-7.3-11c-1.5-6-10.3,2.7-11.6-1.9
				c-1.3-4.5-11.7-9.2-11.7-9.2s3.6-4.1,3.7-10c0.2-15-18-17.6-23.6-11.5c-4.2,4.6-2.4,14.1-2.4,14.1c0-2.3,3.6-3.7,5.5-4.2
				c1.9-0.5,3.4-2.3,2.6-1c-0.8,1.3-3.9,2.9-3.9,2.9s0,0,1.9-0.6c1.9-0.6,5.2-2.3,5.3-4.5c0.2-2.3,2.3-2.9,2.3-2.9
				c1.9,5.6,6,10.6,6,10.6s1.9-0.1,1.9,2c0,2.1-0.8,6.6-2.6,6.6c-1.8,0-1.1-1.8-1.1-1.8"/>
			<path class="st14" d="M565.9,261.6c0,0,1.3,4.2-0.5,5.2c-1.8,1-1-4.4-1-4.4"/>
		</g>
		<g>
			<g>
				<path class="st15" d="M480.5,375l-16.6-1.7l-8.6,8l-40.6-14.9c0,0-2.3-9.7,2.3-9.7c4.6,0,59.4,2.3,59.4,2.3L480.5,375z"/>
				<path class="st16" d="M483.4,352.7c0,0,6.3,14.3,1.7,20.6c-4.6,6.3-16.6-3.4-12-13.7C477.7,349.3,483.4,352.7,483.4,352.7z"/>
				<path class="st16" d="M462.2,368.2c0,0,6.9,6.9,1.1,12.6c-5.7,5.7-8.6,0-7.4-4.6C457.1,371.6,462.2,368.2,462.2,368.2z"/>
			</g>
			<path class="st17" d="M467.4,363c0,0,22.3-12,14.9-22.3c-7.4-10.3-17.1-9.7-12.6-23.4c4.6-13.7,9.1-18.3-2.9-18.3
				c-12,0-16.6,1.1-14.9-12c1.7-13.1-18.9-27.4-18.9-27.4s8.6,6.9,0.6,14.9s-15.4,21.7-10.9,29.2c4.6,7.4-7.4,5.7-8,18.3
				c-0.6,12.6,5.7,14.3,3.4,19.4c-2.3,5.1-4.6,11.4-0.6,13.1C421.6,356.2,447.9,372.7,467.4,363z"/>
			<path class="st18" d="M470.2,357.3c0,0,5.7-10.9-0.6-15.4c-6.3-4.6,5.1-8.6-9.1-17.1c-14.3-8.6-1.7-13.7-7.4-21.2
				c-5.7-7.4-13.1-15.4-13.1-15.4s10.9,9.1-2.3,18.3c-13.1,9.1,2.9,10.3-5.7,18.3s-0.6,10.9-1.1,19.4c-0.6,8.6-1.7,15.4,6.3,17.7
				C445.1,364.2,462.2,363.6,470.2,357.3z"/>
			<path class="st19" d="M463.4,354.5c0,0,10.3-3.4-1.1-11.4c-11.4-8-5.1-0.6-9.1-13.7c-4-13.1-5.7-10.3-8-12
				c-2.3-1.7,3.4,8.6-2.9,13.1c-6.3,4.6-12,9.7-5.1,20C443.9,360.7,446.8,368.2,463.4,354.5z"/>
		</g>
		<g>
			<path class="st19" d="M753.9,232c0,0-5,5.1-17.2,5.5c9.3,5.5,18,2.2,18,2.2"/>
			<polyline class="st11" points="753.9,251.5 753.7,230.1 755.2,229.9 755.9,252.7 			"/>
			
				<linearGradient id="SVGID_3_" gradientUnits="userSpaceOnUse" x1="927.1899" y1="268.0115" x2="999.6178" y2="331.6982" gradientTransform="matrix(1 0 0 1 -140.6754 0)">
				<stop  offset="0" style="stop-color:#FDF1D8"/>
				<stop  offset="1" style="stop-color:#FFE9C6"/>
			</linearGradient>
			<path class="st20" d="M753.8,249.9l57.4,108.2l84.5-18.6c0,0-34.1-42.9-40.1-79.2C802.7,268.4,753.8,249.9,753.8,249.9z"/>
			<g>
				<defs>
					<polygon id="XMLID_106_" points="753.8,249.9 700.4,350.7 811.2,358.2 					"/>
				</defs>
				
					<linearGradient id="XMLID_2_" gradientUnits="userSpaceOnUse" x1="1110.9655" y1="304.0378" x2="1221.783" y2="304.0378" gradientTransform="matrix(-1 0 0 1 1922.1802 0)">
					<stop  offset="0" style="stop-color:#FDF1D8"/>
					<stop  offset="1" style="stop-color:#FFE9C6"/>
				</linearGradient>
				<use xlink:href="#XMLID_106_"  style="overflow:visible;fill:url(#XMLID_2_);"/>
				<clipPath id="XMLID_3_">
					<use xlink:href="#XMLID_106_"  style="overflow:visible;"/>
				</clipPath>
				<g class="st21">
					<defs>
						<polygon id="XMLID_107_" points="753.3,263.1 711.7,357 794.4,363.4 						"/>
					</defs>
					<use xlink:href="#XMLID_107_"  style="overflow:visible;fill:#D5BBB3;"/>
					<clipPath id="XMLID_4_">
						<use xlink:href="#XMLID_107_"  style="overflow:visible;"/>
					</clipPath>
					<polygon class="st22" points="773.2,254 732.3,375.6 800.9,379 					"/>
				</g>
			</g>
		</g>
		<path class="st23" d="M589.8,376.8c0,0-28-10.5-52.5-4.4c-24.5,6.1-37.6,7.9-37.6,7.9L589.8,376.8z"/>
		<path class="st23" d="M606.4,364.5c0,0-15.7,0.9-20.1-0.9s7.9-9.6,10.5-7.9S606.4,364.5,606.4,364.5z"/>
		<path class="st23" d="M254.8,382c-6.7,5.7-19.2-5.2-19.2-5.2S260.9,376.8,254.8,382z"/>
		<path class="st23" d="M168.2,366.3c-19.2,2.6-17.5,2.6-22.7,2.6s-11.4-0.9-14,0s-21-6.1-21-6.1L168.2,366.3z"/>
		<path class="st23" d="M274.9,350.5c0,0-17.5-0.9-27.1,0c-9.6,0.9-32.4,1.7-32.4,1.7l42.9-8.7C258.3,343.5,280.2,348.8,274.9,350.5
			z"/>
		<path class="st23" d="M347.5,354.9c0,0-38.5-5.2-44.6-4.4S287.2,361,287.2,361l57.7,9.6L347.5,354.9z"/>
	</g>
</g>
</svg>
