<svg id="Layer_1" data-name="Layer 1" xmlns="http://www.w3.org/2000/svg" viewBox="0 0 512 512"><defs><style>.cls-1{opacity:0.3;}.cls-2{fill:#ecaa2e;}.cls-3{fill:#213a71;}</style></defs><g class="cls-1"><path class="cls-2" d="M219.08,269.82c-7.23-15.29-33.32-32.39-54.22-35.34s-43.57,3-58.17,18.28c-11.59,12.1-17.35,29.17-17.11,45.93C90,326.13,107,352.86,132,364.18s56.75,6.18,76.37-13,25.35-51.38,12.89-75.83"/></g><g class="cls-1"><path class="cls-2" d="M415.12,272.52c-7.23-15.29-33.32-32.39-54.22-35.34s-43.57,3-58.17,18.29c-11.6,12.1-17.35,29.17-17.11,45.92C286,328.83,303,355.57,328,366.89s56.75,6.18,76.37-13,25.35-51.39,12.89-75.83"/></g><path class="cls-3" d="M222,258.3l1.15,1.68.58.85.5.89,2.07,3.61c.64,1.23,1.19,2.53,1.81,3.8.28.65.65,1.26.87,1.94s.5,1.34.74,2a67.8,67.8,0,0,1,2.56,8.37c.29,1.46.57,2.93.86,4.42s.36,3,.56,4.54a77.14,77.14,0,0,1-6.27,38.14A73.12,73.12,0,0,1,201,360.42a80.06,80.06,0,0,1-42.1,12.93,81.07,81.07,0,0,1-22.37-2.54c-1.83-.38-3.56-1-5.32-1.58s-3.44-1.28-5.14-2a67.27,67.27,0,0,1-9.73-4.93c-12.44-7.47-22.27-18.35-27.58-30.41a60.9,60.9,0,0,1-4.84-18.76,72.73,72.73,0,0,1,.78-18.86,80.38,80.38,0,0,1,5-17.39c.53-1.37,1.2-2.67,1.78-4s1.31-2.56,1.95-3.83,1.42-2.44,2.11-3.65a18.1,18.1,0,0,1,1.1-1.72l1.12-1.65a31.27,31.27,0,0,1,1.88-2.53c.66-.81,1.25-1.65,1.94-2.42,1.38-1.51,2.63-3.06,4-4.41l2-2c.68-.65,1.39-1.27,2.06-1.89s1.33-1.23,2-1.81l2-1.68A121.42,121.42,0,0,1,128.33,235a106.83,106.83,0,0,1,19.06-9c.51-.18,1-.4,1.45-.54l1.26-.42c.79-.27,1.47-.54,2.05-.8a7.67,7.67,0,0,0,2.46-1.27c1.07-.9,1.09-1.94,1.09-3.25s0-2.35-1.3-3.12a9.16,9.16,0,0,0-3.2-.92c-.75-.05-1.62-.08-2.64-.07l-1.64.05c-.59,0-1.18.13-1.83.21-5.22.63-12.79,2.61-23,7.67a120.58,120.58,0,0,0-17,10.58l-2.38,1.78c-.79.63-1.57,1.3-2.38,2s-1.63,1.34-2.45,2.05l-2.45,2.26c-1.69,1.48-3.28,3.24-5,5-.85.87-1.63,1.86-2.47,2.81s-1.68,1.93-2.45,3L84,255a24.72,24.72,0,0,0-1.44,2.06c-.88,1.41-1.85,2.78-2.68,4.26s-1.73,2.93-2.5,4.47-1.6,3.08-2.3,4.69a94.71,94.71,0,0,0-6.73,20.76,87.69,87.69,0,0,0-1.53,23.35,77.1,77.1,0,0,0,5.79,24.31,80.93,80.93,0,0,0,13.9,21.92,90.67,90.67,0,0,0,20.35,17,83.12,83.12,0,0,0,12,6.22c2.12.86,4.21,1.81,6.4,2.47s4.34,1.5,6.59,2a98.4,98.4,0,0,0,27.46,3.17,97.08,97.08,0,0,0,51.77-16.19,86.93,86.93,0,0,0,19.55-18.08,93.58,93.58,0,0,0,19.59-68.91c-.28-1.88-.48-3.76-.85-5.59s-.83-3.65-1.24-5.45a82.15,82.15,0,0,0-3.52-10.34c-.34-.83-.69-1.65-1-2.47s-.78-1.59-1.16-2.38c-.81-1.55-1.57-3.12-2.42-4.61l-2.7-4.32-.67-1.06-.74-1-1.48-2a87,87,0,0,0-19.65-19.09c-.82-.57-1.58-1.19-2.4-1.67l-2.4-1.48-2.32-1.42c-.75-.47-1.55-.82-2.31-1.23-1.52-.77-3-1.55-4.4-2.21l-4.2-1.75a64.62,64.62,0,0,0-23.88-5c-1.29,0-2.41,0-3.39.08a22.21,22.21,0,0,0-2.55.4,9,9,0,0,0-3,1.08c-1.23.82-1.19,1.86-1.15,3.17s.08,2.34,1.23,3.2a8.23,8.23,0,0,0,2.68,1.17c.62.18,1.35.31,2.19.52s1.8.47,2.89.72a85,85,0,0,1,19.82,6.6l3.46,1.72c1.17.64,2.36,1.39,3.61,2.11.61.38,1.27.71,1.89,1.15l1.88,1.31,2,1.35c.68.44,1.29,1,2,1.52A74.41,74.41,0,0,1,222,258.3Z"/><path class="cls-3" d="M349.22,375.91a77.49,77.49,0,0,1-35.67-9.71,79.8,79.8,0,0,1-29.76-28.68,68.56,68.56,0,0,1-8-20.29,71.72,71.72,0,0,1-1.14-22.57,73,73,0,0,1,6.05-22.5,69,69,0,0,1,13.14-19.49c.34-.36.66-.74,1-1.07l1.09-1,2.17-2c.72-.66,1.56-1.26,2.33-1.9l1.18-.94,1.23-.88a82.62,82.62,0,0,1,10.23-6.36,94.78,94.78,0,0,1,10.95-4.9,98.79,98.79,0,0,1,11.39-3.36A90.9,90.9,0,0,1,347,228.43c1.93-.24,3.87-.27,5.79-.4l2.87,0,1.44,0,1.42.06a81.51,81.51,0,0,1,21.94,3.62,66.86,66.86,0,0,1,33.23,23.21,78.18,78.18,0,0,1,15.09,33.67c.17,1.1.33,2.17.42,3.2a30.4,30.4,0,0,1,.17,3.15c0,2.28.15,4.52.06,6.63s-.06,4.19-.23,6.14c-.06,1-.12,1.95-.18,2.9s-.2,1.86-.3,2.76a74.63,74.63,0,0,1-4.12,18,66.64,66.64,0,0,1-5.82,11.76l-1.39,2.21-1.36,1.95c-.83,1.25-1.66,2.32-2.37,3.31s-1.33,1.84-1.88,2.61-1,1.45-1.37,2.06a9,9,0,0,0-1.36,2.83c-.33,1.47.36,2.24,1.25,3.21s1.58,1.73,3.1,1.45a10.06,10.06,0,0,0,3-1.33c.64-.41,1.36-.93,2.18-1.55a32.87,32.87,0,0,0,2.73-2.29c1-.92,2.13-1.94,3.29-3.23l1.86-2,2-2.39a66.7,66.7,0,0,0,8.2-13.57,83,83,0,0,0,6.1-21c.16-1,.32-2.08.49-3.15s.23-2.15.36-3.25c.28-2.21.39-4.48.54-6.84s.16-4.76.25-7.26c0-1.17,0-2.74-.07-4.15s-.22-2.85-.39-4.28a88.42,88.42,0,0,0-5.63-21.11A93.67,93.67,0,0,0,427,244.85a84.75,84.75,0,0,0-17.62-17.78,87.4,87.4,0,0,0-11.12-7c-1-.5-2-1-3-1.45l-1.5-.72-1.55-.65-3.1-1.27-3.18-1.09a97.42,97.42,0,0,0-26.7-4.82l-1.73-.09h-5.19c-2.31.12-4.64.15-6.95.4a108.58,108.58,0,0,0-13.9,2.12,114.46,114.46,0,0,0-13.69,3.95,111.34,111.34,0,0,0-13.22,5.83A100.41,100.41,0,0,0,292.08,230l-1.5,1.08-1.46,1.15c-1,.78-1.95,1.5-2.89,2.34l-2.83,2.57L282,238.46c-.47.43-.88.91-1.33,1.37A86.61,86.61,0,0,0,264,264.67a90.11,90.11,0,0,0-7.4,28.13,88.73,88.73,0,0,0,1.73,28.34A85.17,85.17,0,0,0,268.7,346.6a95.24,95.24,0,0,0,37,34.26,92.66,92.66,0,0,0,21.89,8.07,91.3,91.3,0,0,0,21.65,2.29,97.66,97.66,0,0,0,28.6-5,99.58,99.58,0,0,0,19.67-9.06c10.45-6.47,16.24-12.38,19.75-16.47s4.62-6.71,4.87-8.22-.59-2.17-1.61-3-1.83-1.47-3.28-1.08-3.43,1.9-7.25,4.88a120.81,120.81,0,0,1-18.89,12.53,95.81,95.81,0,0,1-17.44,6.89A85.47,85.47,0,0,1,349.22,375.91Z"/><path class="cls-3" d="M307.32,205.33a9.78,9.78,0,0,1,.69-1.11,11.45,11.45,0,0,1,.74-1.08,17.56,17.56,0,0,1,1.76-2,22.21,22.21,0,0,1,4.53-3.53c.94-.48,1.75-1,2.91-1.5l1.63-.76,1.7-.67c.56-.24,1.15-.44,1.74-.63l1.79-.6c1.23-.32,2.44-.73,3.73-1,10.2-2.42,22.3-2.24,35-.63s24.3,4.38,33,9.67l1.62,1,1.54,1.05a4.46,4.46,0,0,1,.59.47l.51.42.53.4.52.56,1.07,1.11,1,1.31a32.25,32.25,0,0,1,2,2.79,69.07,69.07,0,0,1,6.09,12.24,91.93,91.93,0,0,1,4.52,15.44c.18.94.35,1.81.52,2.62s.24,1.5.36,2.15c.07.33.13.65.19.94s.09.57.13.83q.14.78.3,1.41c.71,3.28,2.11,3.67,4.7,4.18a5.61,5.61,0,0,0,3.2.11,3,3,0,0,0,1.3-1.07,7.61,7.61,0,0,0,1.17-2.41c.16-.53.32-1.12.47-1.81.08-.34.16-.7.23-1.08s.09-.76.14-1.18c.09-.83.18-1.75.25-2.76s0-2.07,0-3.26a78.79,78.79,0,0,0-2.95-18.88,73.49,73.49,0,0,0-6.29-15.89c-.4-.7-.8-1.39-1.2-2.1a24.71,24.71,0,0,0-1.35-2.1c-.49-.71-1-1.41-1.48-2.13s-1.18-1.41-1.78-2.12l-.93-1.06-1.11-1-1.13-1c-.39-.35-.79-.71-1.11-.94l-2.07-1.57L406,186.6a73.46,73.46,0,0,0-19.29-8.84,124.33,124.33,0,0,0-20.87-4.22,138,138,0,0,0-21.1-1.13,85.21,85.21,0,0,0-20.62,3c-1.66.42-3.27,1-4.87,1.54l-2.36.92c-.78.3-1.55.62-2.3,1l-2.24,1.05c-.74.37-1.45.77-2.17,1.16a46.73,46.73,0,0,0-4.3,2.65,35.34,35.34,0,0,0-12.39,15,37.36,37.36,0,0,0-2.86,12,21.07,21.07,0,0,0-.12,2.46c0,.79,0,1.54,0,2.27.08,1.42.13,2.75.27,3.94a33.7,33.7,0,0,0,2.31,9.64c1.76,3.79,3.26,3.42,5.82,2.89s4-.89,4.43-4.59c.28-1.83.2-4.53.48-8.32.05-.95.2-1.95.28-3,.09-.53.17-1.07.26-1.64a15.47,15.47,0,0,1,.33-1.73A24.47,24.47,0,0,1,307.32,205.33Z"/><path class="cls-3" d="M98.91,230.43q.16-3.59.35-7.46c0-.64.06-1.29.08-1.95s.08-1.16.11-1.75c.1-1.17.21-2.34.37-3.51.64-4.63,2-9.24,4.23-12.42a13.22,13.22,0,0,1,4-3.81,15.52,15.52,0,0,1,2.74-1.33,24.48,24.48,0,0,1,3.37-1,57.13,57.13,0,0,1,8.35-1.17c3-.23,6.52-.43,9.82-.64,6.66-.42,13.08-.72,19.23-.73A124,124,0,0,1,169,195.77c1.36.21,2.71.4,4,.68s2.6.52,3.86.83,2.47.67,3.7,1c.63.16,1.1.37,1.65.55s1.08.34,1.59.54a22.14,22.14,0,0,1,13.36,12.92,17.73,17.73,0,0,1,.66,1.65c.19.55.42,1.05.57,1.59.31,1.07.67,2,.91,3,1.06,3.75,1.63,6.48,2.33,8.25,1.29,3.6,2.79,3.56,5.42,3.43S211.22,230,212,226a36.76,36.76,0,0,0,.15-9.76c-.08-1.18-.32-2.48-.52-3.88-.1-.7-.29-1.45-.45-2.21a24.57,24.57,0,0,0-.6-2.39,36.66,36.66,0,0,0-5.18-11.25,37.35,37.35,0,0,0-14.88-12.33c-.75-.36-1.51-.66-2.28-1s-1.56-.68-2.29-.92c-1.49-.49-3-1.08-4.53-1.5s-3.1-.91-4.69-1.27-3.2-.73-4.83-1a124.73,124.73,0,0,0-20.14-2c-6.83-.13-13.73.13-20.57.56-3.46.22-6.69.42-10.27.73a70.38,70.38,0,0,0-11.12,1.78,39.66,39.66,0,0,0-5.82,1.93,31.38,31.38,0,0,0-5.71,3,30.36,30.36,0,0,0-9,9.24,37.21,37.21,0,0,0-4.48,10.55,52.17,52.17,0,0,0-1.57,9.9c-.1,1.58-.14,3.11-.14,4.6,0,.75,0,1.49,0,2.23l.09,1.95q.18,3.87.35,7.47C85.2,261,86,261,91.25,261S97.31,261,98.91,230.43Z"/><path class="cls-3" d="M337.56,145.55c-3.08-.67-6.26-1.21-9.46-1.65s-6.44-.79-9.81-1.19-6.84-.65-10.39-1-7.21-.51-10.93-.76c-14.9-.82-31-1-47.54-.47s-32.49,1.56-47.18,2.78c-7.34.62-14.37,1.27-21,1.94l-4.89.5-4.86.52a77.78,77.78,0,0,0-9.86,1.76,48,48,0,0,0-7.32,2.49c-.26.11-.6.28-.92.45l-.94.49a13.83,13.83,0,0,0-1.8,1,22.46,22.46,0,0,0-3.09,2.41,26,26,0,0,0-6.68,10.1,33.6,33.6,0,0,0-1.84,7.57,25.81,25.81,0,0,0-.17,5c.19,2.55.75,3.79,1.53,4.45a5.34,5.34,0,0,0,3.12.86,5.6,5.6,0,0,0,3.23-.29c.89-.5,1.61-1.57,2.41-3.59.42-1,.84-2.26,1.41-3.72a38.08,38.08,0,0,1,2.22-4.92,14.14,14.14,0,0,1,4-4.64,8.32,8.32,0,0,1,1.35-.81,3.21,3.21,0,0,1,.76-.32l.39-.16a3.86,3.86,0,0,1,.47-.17,34.09,34.09,0,0,1,5.14-1.23,72.32,72.32,0,0,1,8-.76l9.55-.39,21-1c14.61-.69,30.37-1.45,46.57-2s31.85-.61,46.3-.33c3.61.12,7.15.17,10.6.3s6.82.23,10.08.44,6.46.32,9.46.53,5.81.45,8.43.79a54.62,54.62,0,0,1,10.42,2.3,19.54,19.54,0,0,1,5.75,2.72,8.36,8.36,0,0,1,2.33,2.94c.61,1.18,1.09,2.41,1.55,3.38.9,2,1.69,3.11,2.61,3.54a9,9,0,0,0,6.3-1c.73-.71,1.23-1.91,1.31-4.45a22.12,22.12,0,0,0-.52-5.17c-.15-.57-.27-1.16-.5-1.82-.11-.32-.23-.65-.34-1s-.31-.7-.46-1.06a18,18,0,0,0-2.89-4.46c-2.55-3-6.25-5.15-9.79-6.78A64.18,64.18,0,0,0,337.56,145.55Z"/><path class="cls-3" d="M288.4,129a33.48,33.48,0,0,0-7.29-4.46,47.59,47.59,0,0,0-8.58-2.9,80.3,80.3,0,0,0-8.95-1.57c-2.93-.36-6-.68-9.34-.77a57.86,57.86,0,0,0-10.13.51,40.86,40.86,0,0,0-10,2.76c-.8.37-1.56.7-2.35,1.12a25.9,25.9,0,0,0-2.31,1.35,23.39,23.39,0,0,0-2.11,1.49,22.62,22.62,0,0,0-1.9,1.6,28.31,28.31,0,0,0-5.65,7.16,22.6,22.6,0,0,0-3,10.28,14.45,14.45,0,0,0,.29,3.39,9.35,9.35,0,0,0,.82,2.17c1.39,2.14,2.88,1.67,5.44,1.12s4-1,4.9-2.18a4.33,4.33,0,0,0,.67-1c.27-.39.43-.83.74-1.34a16.85,16.85,0,0,1,2.84-3.92A18.87,18.87,0,0,1,236,141a11.55,11.55,0,0,1,1-.6c.34-.2.7-.36,1.06-.53s.74-.29,1.1-.44.85-.29,1.27-.44a32.32,32.32,0,0,1,6-1.14,58.86,58.86,0,0,1,7.27-.17c2.61.07,5.33.28,8.05.48s5.15.43,7.4.74a49.88,49.88,0,0,1,6.06,1.17,30.16,30.16,0,0,1,4.75,1.66,28.3,28.3,0,0,1,4.8,2.83,13.92,13.92,0,0,0,2.59,1.64c1.46.62,2.89.18,5.34-.79s3.93-1.43,4-3.84A10.94,10.94,0,0,0,295,136.5,26.6,26.6,0,0,0,288.4,129Z"/><path class="cls-3" d="M257.93,189.74a8,8,0,0,1,.93,3.22,6.68,6.68,0,0,1-.07,1.49,9.54,9.54,0,0,1-.47,1.57,8.9,8.9,0,0,1-2.15,3.11,8.34,8.34,0,0,1-1.5,1.1,8.53,8.53,0,0,1-1.49.59,7.24,7.24,0,0,1-1.59.12,7.66,7.66,0,0,1-1.83-.32,9,9,0,0,1-3.3-1.84,8.83,8.83,0,0,1-1.11-1.21,6.59,6.59,0,0,1-.73-1.3A8.19,8.19,0,0,1,244,193a10.08,10.08,0,0,1,.32-2.52c.17-.75.41-1.36.59-1.93a13,13,0,0,0,.86-2.61c.28-1.44-.33-2.83-1.61-5.12s-1.92-3.73-4.43-3.34a10.87,10.87,0,0,0-4.91,2.81,20,20,0,0,0-3,3.6,22,22,0,0,0-2.71,5.73,21.92,21.92,0,0,0,.94,15.78,23.6,23.6,0,0,0,3.31,5.18,25,25,0,0,0,10.28,7.22,24.68,24.68,0,0,0,6.57,1.48,22.74,22.74,0,0,0,13.78-3.2,24.94,24.94,0,0,0,11.28-15.24,23.92,23.92,0,0,0,.68-6.11,21.32,21.32,0,0,0-1-5.85,21.84,21.84,0,0,0-5.14-8.73,22.2,22.2,0,0,0-5-3.94,19.56,19.56,0,0,0-4.31-1.9,10.75,10.75,0,0,0-5.65-.34c-2.42.75-2.36,2.34-2.5,4.94s-.07,4.14.82,5.31a13.71,13.71,0,0,0,1.92,2c.41.43.9.87,1.38,1.47A9.87,9.87,0,0,1,257.93,189.74Z"/><path class="cls-3" d="M223.28,282a54.57,54.57,0,0,0-7.17-17.24,58.42,58.42,0,0,0-6.69-8.56,52.61,52.61,0,0,0-19-12.85,58.34,58.34,0,0,0-10.43-3,54.74,54.74,0,0,0-18.67-.24c-8.57,1.52-12.45,3.69-14.18,5s-1.31,2.3-.64,3.85,1.09,2.43,3.07,2.37,5.52-1.14,12.77-1.47a58,58,0,0,1,15.32,1.53,57,57,0,0,1,8.31,2.76,54.65,54.65,0,0,1,8,4.36,53.37,53.37,0,0,1,7,5.84,55.42,55.42,0,0,1,5.65,6.68,57.56,57.56,0,0,1,7.13,13.65c2.4,6.85,2.66,10.58,3.39,12.4s1.66,1.91,3.35,2,2.66.1,3.33-2S225.07,290.51,223.28,282Z"/><path class="cls-3" d="M215.51,332.32a7.24,7.24,0,0,0,3.56-6.4c-.14-1.86-.6-2.11-3.55-3.75s-3.4-1.89-5.06-1a7.26,7.26,0,0,0-3.55,6.4c.14,1.86.59,2.11,3.54,3.75S213.86,333.18,215.51,332.32Z"/><path class="cls-3" d="M339.08,238.16A61.18,61.18,0,0,0,312.83,254c-2.26,2.43-3.22,3.81-3.39,4.85s.48,1.77,1.59,3,1.76,2,2.78,2,2.42-.71,5.11-2.18c3.36-1.84,7.61-4.46,12.15-7.21s8.82-5.28,12-7.4c2.55-1.7,3.83-2.6,4.3-3.52s.12-1.82-.49-3.4-.95-2.48-1.95-2.82S342.28,237.29,339.08,238.16Z"/><path class="cls-3" d="M415.4,327.34a81.88,81.88,0,0,0,5.2-19.83,74.5,74.5,0,0,0,.55-12,69.52,69.52,0,0,0-1.72-12.69A61.47,61.47,0,0,0,415,270.61a62.85,62.85,0,0,0-6.63-10.32,52.26,52.26,0,0,0-16.39-13.57,42.69,42.69,0,0,0-10.86-3.88,19.67,19.67,0,0,0-5.92-.36c-2.52.36-2.55,1.34-2.7,3s-.18,2.66,1.76,3.6c1,.41,2.42,1,4.55,1.8a47.6,47.6,0,0,1,8.22,4.33,50.59,50.59,0,0,1,12.38,12,59.78,59.78,0,0,1,5.07,8.56,56,56,0,0,1,3.48,9.82,67.26,67.26,0,0,1,1.54,10.52,73.86,73.86,0,0,1-.12,10.22,97.67,97.67,0,0,1-3.26,17.86c-2.33,8.27-4.12,12.3-4.48,14.55s.46,2.73,1.95,3.53,2.34,1.26,4-.48S411.81,336.1,415.4,327.34Z"/><path class="cls-3" d="M384.8,361.63a5,5,0,0,0,4.26-4.26c.19-1.64-.18-2-2.57-4.4s-2.75-2.75-4.39-2.56a5,5,0,0,0-4.26,4.26c-.19,1.64.18,2,2.57,4.39S383.16,361.81,384.8,361.63Z"/><path class="cls-3" d="M257.57,300.2a8,8,0,0,0-9.48.27c-2,1.65-2,2.46-1.8,7.71s.16,6.05,2.23,7.59a8,8,0,0,0,9.48-.27c2-1.65,1.95-2.45,1.81-7.7S259.64,301.74,257.57,300.2Z"/></svg>