<svg id="Layer_1" data-name="Layer 1" xmlns="http://www.w3.org/2000/svg" viewBox="0 0 512 512"><defs><style>.cls-1{fill:#ecaa2e;opacity:0.3;}.cls-2{fill:#213a71;}</style></defs><path class="cls-1" d="M218,304.73q5.25,6.34,10.31,12.85c3.9,5,7.74,10.15,10.32,15.95,9.51,21.43,0,46.58,4.1,69.66,4.65-1.61,9.48-3.33,12.95-6.82,4.08-4.11,5.65-10,7-15.65,3.52-14.42,6.78-29.06,6.64-43.9s-4-30.07-13.28-41.61c11.58-5,24.11-10.11,36.45-7.5,14.13,3,24.4,15.54,30.14,28.78,1.21,2.78,3.55,6.23,6.36,5.1a5.63,5.63,0,0,0,2.39-2.46,108.3,108.3,0,0,0,8.37-16.5,16.79,16.79,0,0,0,1.38-4.93c.25-3.5-1.55-6.8-3.42-9.77-9.13-14.51-21.74-27.15-37.27-34.4s-34.13-8.66-49.88-1.89c-4.3,1.85-8.44,4.34-11.4,8s-4.45,7.86-6.41,11.94a68.75,68.75,0,0,1-25.6,28.52"/><path class="cls-1" d="M105.22,165l47.29-29.62c7.75-4.85,16-10.33,19.07-19,.75-2.1,1.11-4.54,0-6.47-1.28-2.22-4-3-6.55-3.54-13.13-2.66-27.17-2.24-39.45,3.11S103,125.55,100,138.61c-1.45,6.27-1.24,12.79-1,19.22a4,4,0,0,0,.6,2.4,3.73,3.73,0,0,0,2,1.08,29,29,0,0,0,15.32.22"/><path class="cls-2" d="M164.67,141a22.22,22.22,0,0,1,.62,7.27,45.06,45.06,0,0,1-1.7,9.33c-.11.42-.23.85-.35,1.27s-.27.73-.39,1.11a16.74,16.74,0,0,1-.85,2.12A20.41,20.41,0,0,1,161,164.2a20.91,20.91,0,0,1-1.26,2.05,31.3,31.3,0,0,1-6.91,7.29A30.6,30.6,0,0,1,134.7,180a26.06,26.06,0,0,1-8.5-1.25,23,23,0,0,1-6.64-3.31c-.39-.27-.67-.51-1.07-.83l-1.38-1.2c-.84-.72-1.63-1.38-2.37-2-1.41-1.16-2.22-1.88-2.78-2.41a11.92,11.92,0,0,1-1.34-1.49c-.37-.52-.71-1-1.05-1.48a4,4,0,0,0-2.2-1.64,11,11,0,0,0-3.21-.08,8.28,8.28,0,0,0-3.15.55,3.43,3.43,0,0,0-1.71,2.78,10.88,10.88,0,0,0,0,3.26,15.82,15.82,0,0,0,1.64,5.06,30.32,30.32,0,0,0,3.66,5.33l2,2.46,1,1.27c.46.52,1,1.18,1.59,1.75a37.69,37.69,0,0,0,24.81,10.83A45.1,45.1,0,0,0,164,188.15a46.14,46.14,0,0,0,11-12,34.51,34.51,0,0,0,2-3.5A33,33,0,0,0,178.6,169a29.7,29.7,0,0,0,1.25-3.73c.17-.61.41-1.29.51-1.84l.36-1.68a53,53,0,0,0,1.21-13.56,34,34,0,0,0-3.05-12.83,30.67,30.67,0,0,0-2.35-4.15c-.43-.61-.88-1.17-1.31-1.71a13,13,0,0,0-1.3-1.51,28.29,28.29,0,0,0-4.92-4.17,22.32,22.32,0,0,0-3.9-2,11.24,11.24,0,0,0-2.79-.81c-3.07-.38-3.64,1-4.74,3.42s-1.67,3.8-.2,5.72c.39.46.79,1.05,1.38,1.65s1.2,1.35,2,2.15a26.25,26.25,0,0,1,2.18,3,6.63,6.63,0,0,1,.5.91c.15.33.34.64.5,1A17.89,17.89,0,0,1,164.67,141Z"/><path class="cls-2" d="M100.14,140.12a47.67,47.67,0,0,1,7.36-12.93,43,43,0,0,1,12.44-10.52c1.22-.76,2.57-1.33,3.87-2l2-.84c.35-.14.69-.29,1-.42l1.06-.35a45.78,45.78,0,0,1,8.86-2.11,44.32,44.32,0,0,1,9.29-.38c.78.08,1.57.07,2.34.19l2.32.32a44.33,44.33,0,0,1,4.56,1.06,18.17,18.17,0,0,1,3.78,1.36,12.56,12.56,0,0,1,2.68,1.75,6,6,0,0,1,.72.73.29.29,0,0,1,.06.1s0,0,0,0h0l0,0s0,0,0,0a4.57,4.57,0,0,1-.6.81,23.13,23.13,0,0,1-2.89,2.63c-2.5,2-5.19,3.92-8,5.85-11.09,7.69-21.69,14.71-30.58,21-14.28,10-21.29,15.35-24.34,18.81s-2.11,4.74-.51,6.8,2.52,3.25,6.5,1.69,11.45-5.79,26.53-14.37c9.44-5.4,20.36-11.7,32.22-19.27,2.95-1.88,6-4,9.22-6.32a39.55,39.55,0,0,0,5.17-4.56,23.17,23.17,0,0,0,2.73-3.51,19.08,19.08,0,0,0,2.2-5,17.46,17.46,0,0,0-.47-10.83,18,18,0,0,0-1.15-2.54,13.37,13.37,0,0,0-.74-1.23c-.26-.39-.48-.74-.73-1.06a23.37,23.37,0,0,0-3.11-3.4,30.06,30.06,0,0,0-6.74-4.57,35.25,35.25,0,0,0-7-2.61,59.46,59.46,0,0,0-6.61-1.51l-3.33-.44c-1.11-.16-2.22-.16-3.32-.25a60.53,60.53,0,0,0-13,.7,61.86,61.86,0,0,0-12.22,3.22c-1,.35-2,.72-2.88,1.16s-1.88.82-2.8,1.26c-1.81,1-3.63,1.85-5.31,3a57.28,57.28,0,0,0-16.73,15.68,59.08,59.08,0,0,0-8.6,18.16c-.16.6-.33,1.18-.49,1.76s-.25,1.16-.37,1.72c-.23,1.13-.51,2.22-.63,3.29s-.3,2.1-.44,3.1-.15,2-.22,2.91q0,.7-.09,1.38v1.33c0,.87,0,1.71,0,2.51.08,1.62.21,3.1.33,4.46s.41,2.61.61,3.74.52,2.14.76,3.05a19.29,19.29,0,0,0,.82,2.44c.29.72.56,1.35.82,1.9,2.33,4.34,3.81,3.72,6.27,2.88s3.85-1.43,3.81-5.44c.08-2-.21-4.91-.06-9.22.07-1.07.15-2.23.24-3.49.08-.62.16-1.27.25-1.94,0-.33.08-.68.12-1s.13-.7.19-1.06l.41-2.21c.19-.75.39-1.53.59-2.34s.48-1.61.73-2.46c.13-.42.27-.85.4-1.28S100,140.56,100.14,140.12Z"/><path class="cls-2" d="M174.16,169.65c-.58-.21-1.18-.4-1.8-.59l-1.9-.65c-1.32-.4-2.67-.93-4.1-1.37-2.83-1-5.86-2.12-8.94-3.35s-6-2.61-8.72-3.88c-1.33-.68-2.67-1.25-3.89-1.89l-1.81-.87c-.58-.3-1.14-.58-1.7-.84-.89-.41-1.66-.79-2.33-1.13s-1.29-.6-1.84-.81a5.68,5.68,0,0,0-2.6-.59c-1.45.09-2.52,1.17-4.35,3s-2.9,3-2.78,4.5a6.54,6.54,0,0,0,1.12,2.84c.37.57.84,1.2,1.41,1.91a26.45,26.45,0,0,0,2.07,2.38c.51.55,1.05,1.1,1.62,1.68s1.21,1.09,1.86,1.65a51.3,51.3,0,0,0,4.31,3.31,57.92,57.92,0,0,0,22.28,9.12,51.57,51.57,0,0,0,5.39.65c.85,0,1.68.1,2.49.12s1.58,0,2.33,0a29.44,29.44,0,0,0,3.14-.25c.91-.11,1.69-.24,2.35-.38a6.63,6.63,0,0,0,2.79-1.23c1.16-1,1.15-2.54,1.17-5.16s0-4.15-1-5.23a5.53,5.53,0,0,0-2.27-1.4,19.7,19.7,0,0,0-1.87-.71C175.9,170.24,175.08,170,174.16,169.65Z"/><path class="cls-2" d="M290.8,185.23a51.7,51.7,0,0,0,6.8-25.13,51,51,0,0,0-.48-7.6l-.24-1.67-.18-1.45a20.07,20.07,0,0,1-.14-2.39,2,2,0,0,1,0-.44,1.58,1.58,0,0,1,0-.34c0-.09,0-.2.05-.22s0,0,0-.07h0l-.07,0a7.45,7.45,0,0,1-2.83-1.22h0l.09.12a1.6,1.6,0,0,1,.16.23l0,.06v0h0c.3.5-.39-.68-.32-.55l0,0,.12.21c0,.11.19.38.28.6l.17.44c.07.17.13.35.19.52l.23.69.12.39c0,.13.08.31.06.25H295l.15,0,1.61-.22a22.45,22.45,0,0,0,3.72-.82c.59-.21,1.16-.49,1.76-.73l.88-.4.84-.5a11.43,11.43,0,0,0,1.63-1.15l.78-.65c.25-.23.49-.48.73-.73a18,18,0,0,0,4.28-7.46,19.59,19.59,0,0,0,.78-4.57c0-.39,0-.79,0-1.19s0-.75,0-1.12c-.09-.76-.15-1.52-.31-2.29a18.32,18.32,0,0,0-4.47-8.87,20.55,20.55,0,0,0-7.95-5.27,23.66,23.66,0,0,0-8.88-1.39,23.91,23.91,0,0,0-8.84,2.06,27.47,27.47,0,0,0-7.14,4.7,36.66,36.66,0,0,0-9.29,14,88.16,88.16,0,0,0-3.69,13.32,79.71,79.71,0,0,1-2.78,10.47,25.58,25.58,0,0,1-1.81,4,14.65,14.65,0,0,1-1.07,1.62l-.57.75-.63.71c-3.44,3.77-9,6.31-14.74,7.66-1.44.35-2.9.63-4.36.85-.74.11-1.49.23-2.06.27l-.92.09-1.06,0c-2.83.11-5.9,0-8.84-.05-9.45-.34-16.82-.76-22.37-.76a60.66,60.66,0,0,0-12,.82,13.26,13.26,0,0,0-3.05,1,3.85,3.85,0,0,0-1.53,1.29c-.56.9-.38,1.92-.19,3.22a6.11,6.11,0,0,0,1,3.09,3.51,3.51,0,0,0,1.33,1,11.3,11.3,0,0,0,2.54.79c2.24.52,5.65,1,10.94,1.79s12.37,1.85,22.2,3c3.1.35,6.33.68,10,.8l1.4,0,1.56,0c1.09,0,2-.1,2.94-.18,1.9-.18,3.83-.43,5.79-.79a52.77,52.77,0,0,0,12.14-3.65c1-.43,2.06-1,3.09-1.5s2.05-1.15,3-1.85a34.75,34.75,0,0,0,5.78-4.72c.44-.46.89-.92,1.33-1.4l1.24-1.51a30.14,30.14,0,0,0,2.25-3.19,41.41,41.41,0,0,0,3.34-6.7,90.66,90.66,0,0,0,3.78-12.9,76.92,76.92,0,0,1,3-10.67,19,19,0,0,1,4.55-7.08,8.88,8.88,0,0,1,2.32-1.57,5.87,5.87,0,0,1,2-.48,5.66,5.66,0,0,1,1.87.24,2.93,2.93,0,0,1,.84.45l.06,0s0,.09,0,.13,0,.06,0,.08h0s0,0,0,0a.22.22,0,0,1-.05.24l-.06,0-.89.15c-.37.06-.82.13-1.3.23a17.78,17.78,0,0,0-3.59,1.1,12.71,12.71,0,0,0-2,1.1,14,14,0,0,0-1.88,1.42,13.27,13.27,0,0,0-1.63,1.73,12.92,12.92,0,0,0-1.28,1.9c-.18.32-.36.65-.52,1l-.39.94a12.75,12.75,0,0,0-.6,1.81,20.87,20.87,0,0,0-.62,5.94,34.57,34.57,0,0,0,.42,4.46c.11.63.21,1.25.32,1.87s.19,1.07.29,1.6a34.76,34.76,0,0,1,.57,5.1,38.57,38.57,0,0,1-3.58,17.81,36,36,0,0,1-5.8,8.84,41.83,41.83,0,0,1-6,5.57,52.15,52.15,0,0,1-4.9,3.38L257.11,198c-1.86,1.17-2.78,2-3.14,3a5.79,5.79,0,0,0,.12,3.25c.28,1.28.48,2.3,1.3,3s2.27,1,5,.68a25.93,25.93,0,0,0,5.08-1.23,39,39,0,0,0,7.15-3.22,47.84,47.84,0,0,0,8.9-6.53,52.19,52.19,0,0,0,4.75-5.06A51.11,51.11,0,0,0,290.8,185.23Z"/><path class="cls-2" d="M195.64,284.16c-.72-.62-1.48-1.25-2.26-1.89l-2.32-2.13c-1.65-1.38-3.18-3.09-4.9-4.7a127.29,127.29,0,0,1-9.74-11.51,126.71,126.71,0,0,1-8-12.78c-1-2.13-2.17-4.11-3-6.1l-1.33-2.86q-.56-1.41-1.11-2.73c-.3-.7-.57-1.35-.84-2s-.44-1.22-.63-1.76c-.41-1.1-.79-2-1.15-2.85a10.85,10.85,0,0,0-1.77-3.44c-1.25-1.42-2.77-1.3-5.38-1.06s-4.12.35-5,2.23a13.16,13.16,0,0,0-.77,4.39c0,1,.06,2.22.15,3.61.05.7.11,1.45.17,2.26s.24,1.63.38,2.54c.18,1.13.38,2.3.61,3.53s.61,2.43.95,3.71a75.08,75.08,0,0,0,2.67,7.9,78,78,0,0,0,21.78,29.85,73.86,73.86,0,0,0,6.72,5c1.11.72,2.19,1.41,3.24,2s2.16,1.14,3.18,1.66c.82.41,1.58.8,2.31,1.13l2.09.85c1.3.52,2.42.93,3.4,1.25a13.16,13.16,0,0,0,4.41.61c2-.22,2.61-1.63,3.64-4s1.59-3.82.62-5.45a11,11,0,0,0-2.73-2.73c-.66-.59-1.44-1.24-2.36-2l-1.49-1.15C196.75,285.13,196.21,284.66,195.64,284.16Z"/><path class="cls-2" d="M208.93,215c.51,1.66,1.17,3.32,1.81,5.08s1.42,3.51,2.28,5.29a103.85,103.85,0,0,0,6,11,78,78,0,0,0,8.46,11.31c.44.47.84.94,1.32,1.41l1.47,1.41c1,1,1.93,1.75,2.68,2.4a23.63,23.63,0,0,1,1.75,1.65l.27.29c.07.08.16.22.13.16h0s0,0,0,0,0,.09,0,.2l-.14.38c-.11.28-.24.6-.41,1-.33.72-.85,1.66-1.28,2.51a93.93,93.93,0,0,1-5.89,9.7,103.32,103.32,0,0,1-13,15.16c-3.39,3.26-6.14,5.53-8.21,7.24-1,.88-1.91,1.58-2.61,2.24a19.42,19.42,0,0,0-1.66,1.72c-1.65,2-1,3.41.14,5.77s1.79,3.73,4.69,3.43a11.71,11.71,0,0,0,2.62-.61,30.09,30.09,0,0,0,3.66-1.45A68.62,68.62,0,0,0,224,295.77a84.65,84.65,0,0,0,17.4-16.46,89.48,89.48,0,0,0,7.77-11.52c.59-1.07,1.16-2,1.79-3.29.31-.63.62-1.32.93-2.06.16-.38.31-.77.45-1.18s.29-.82.45-1.38a18.45,18.45,0,0,0,.7-6.61,17.08,17.08,0,0,0-1.86-6.41,19.44,19.44,0,0,0-1.8-2.87c-.39-.49-.64-.81-.94-1.15s-.58-.66-.86-1a39.2,39.2,0,0,0-3.15-2.93c-.94-.79-1.75-1.44-2.3-2l-.94-.84c-.31-.28-.62-.64-.93-1a75.82,75.82,0,0,1-7.06-8.58,136.52,136.52,0,0,1-10.52-17.38c-.5-1.06-1-2-1.45-3l-1.18-2.61c-.33-.82-.64-1.57-.93-2.27l-.43-1c-.12-.32-.23-.62-.33-.92-.46-1.17-.85-2.15-1.16-3a18.28,18.28,0,0,0-.95-2c-1.11-2-2.65-2.16-5.26-2.21s-4.16-.19-5.11,2.91a12,12,0,0,0-.4,2.88,23.65,23.65,0,0,0,.14,4.18c0,.41.08.83.13,1.28s.14.87.22,1.33c.17.92.33,1.93.56,3l.84,3.36C208.12,212.4,208.53,213.62,208.93,215Z"/><path class="cls-2" d="M336,276.16a103.38,103.38,0,0,0-13.61-15.64c-1.46-1.29-2.88-2.67-4.5-3.94l-2.42-1.94-2.59-1.87A61,61,0,0,0,301,246.12a30.61,30.61,0,0,0-3.45-1.26l-1.76-.57-1.63-.42c-2.14-.57-4.3-1-6.43-1.33a75.78,75.78,0,0,0-12.47-.93A71.82,71.82,0,0,0,254,245a60.78,60.78,0,0,0-10.59,4.48A17.72,17.72,0,0,0,238.6,253c-1.72,2-1,3.35.21,5.68s1.93,3.66,4.28,3.7,6.32-1.3,14.42-2.5a87.15,87.15,0,0,1,17.31-.65,78.71,78.71,0,0,1,9.74,1.25c1.64.36,3.31.7,5,1.17l1.24.33,1.05.37a21.22,21.22,0,0,1,2.16.8,52.81,52.81,0,0,1,8.71,4.7l2.11,1.4,2,1.49c1.38.95,2.66,2.06,4,3,5.14,4.15,9.65,8.45,13.47,12.21,6.09,6.07,8.84,9.39,10.89,10.6s3.35.48,5.59-.88,3.55-2.13,3.17-4.71S341.51,284,336,276.16Z"/><path class="cls-2" d="M330,301.32a74.26,74.26,0,0,0-13-15.39,46.75,46.75,0,0,0-10.56-7.11c-.52-.25-1-.53-1.55-.75l-1.64-.64a26.48,26.48,0,0,0-3.39-1.15c-1.19-.3-2.31-.6-3.59-.87a27.21,27.21,0,0,0-4.32-.39,29.47,29.47,0,0,0-8,1.07,46.32,46.32,0,0,0-6.39,2.29c-3.82,1.68-6.95,3.42-9.91,5-5.85,3.18-10.93,5.77-15.49,7.81-3.62,1.63-6.43,2.7-8.53,3.57-1.05.44-1.93.83-2.67,1.19a11.45,11.45,0,0,0-1.76,1.06c-1.82,1.38-1.61,2.88-1.21,5.47s.61,4.1,3,4.76a9.36,9.36,0,0,0,2.24.31,25.27,25.27,0,0,0,3.29-.07,67.64,67.64,0,0,0,10.5-1.78,106.62,106.62,0,0,0,18.34-6.49c3.16-1.39,6.31-2.88,9.2-4a32.41,32.41,0,0,1,4-1.33,12.34,12.34,0,0,1,3.16-.43,9.26,9.26,0,0,1,1.31.11l1.86.44a12,12,0,0,1,1.88.59l.93.31c.32.11.62.28.93.42a34.93,34.93,0,0,1,7.15,4.27A99.13,99.13,0,0,1,318,310.81c2.83,3,5,5.3,6.73,7a18.77,18.77,0,0,0,4.16,3.35c2.2,1.11,3.37.16,5.43-1.47s3.23-2.59,2.82-4.85a18.63,18.63,0,0,0-1.93-4.79C334.11,307.92,332.48,305.08,330,301.32Z"/><path class="cls-2" d="M268.68,383a118.26,118.26,0,0,0,6.95-15,82.91,82.91,0,0,0,3-9.57,67.15,67.15,0,0,0,1.66-10.83A62.27,62.27,0,0,0,280,336.5a66.2,66.2,0,0,0-2.11-10.22,68.21,68.21,0,0,0-7.15-16,57.93,57.93,0,0,0-5.26-7.48,13.12,13.12,0,0,0-3.5-3.23c-1.91-1.07-3.17-.23-5.38,1.19s-3.47,2.26-3.43,4.32a15.67,15.67,0,0,0,1,4.27c.66,1.88,1.64,4.32,2.75,7.56a108.63,108.63,0,0,1,3.87,13.67,73.19,73.19,0,0,1,1.06,7.7,60.49,60.49,0,0,1,0,8.08,80.43,80.43,0,0,1-3,16.15c-1.43,5.21-3.09,10.19-4.36,14.61-2.09,7.08-3,10.84-2.67,13s1.72,2.67,4.16,3.62,3.87,1.48,5.52.19S265.08,389.53,268.68,383Z"/><path class="cls-2" d="M246.6,383.44a114.38,114.38,0,0,0-.46-17.92,145.89,145.89,0,0,0-3.81-20.81,129.39,129.39,0,0,0-7.16-20.08,88.53,88.53,0,0,0-9.24-15.8,60.64,60.64,0,0,0-6.5-7.58,18,18,0,0,0-2.42-2,10.38,10.38,0,0,0-1.87-1.08c-2.18-.92-3.27.14-5.19,1.94s-3,2.85-2.6,4.94a16.5,16.5,0,0,0,1.74,4.15c.86,1.92,2.27,4.21,3.76,7.59,2,4.1,4,9.1,6.05,14.59s3.88,11.65,5.63,18,3,12.72,4.17,18.6,2,11.31,2.6,16c.6,3.75.82,6.55,1.21,8.69a16.34,16.34,0,0,0,1.09,4.53c1,2,2.45,2.11,5.07,2.33s4.12.36,5.3-1.63a15.94,15.94,0,0,0,1.58-4.87A78.81,78.81,0,0,0,246.6,383.44Z"/><path class="cls-2" d="M274.4,408.64a116.33,116.33,0,0,0-19.74-4.74c-3-.5-6.38-.87-7.93-1.1l-.56-.09s0,0-.08.05a.78.78,0,0,1-.18.11,1.24,1.24,0,0,1-.54.11,2.75,2.75,0,0,1-.67-.32,2.21,2.21,0,0,1-.54-.56c-.06,0-.06-.2-.09-.31s0-.25-.07-.38-.08-.52-.11-.75a7.37,7.37,0,0,0-.65-2.42c-.69-1.27-2.1-1.81-4.57-2.69s-3.9-1.41-5.28-.64a6,6,0,0,0-2.13,2.49c-.19.34-.38.74-.57,1.18a7,7,0,0,0-.28.71c-.09.27-.19.48-.29.87a17.72,17.72,0,0,0-.65,5.1,13.9,13.9,0,0,0,2,6.95,15.41,15.41,0,0,0,4.36,4.84,18.68,18.68,0,0,0,3.22,1.86c.59.26,1.21.53,1.81.73s.95.33,1.42.48a46,46,0,0,0,5,1.17c1.46.28,2.95.54,4.47.79A117.3,117.3,0,0,0,272,423.75c8.79-.21,8.91-1,9.75-6.18S282.68,411.58,274.4,408.64Z"/><path class="cls-2" d="M246.09,123c-14.87-8.34-35.11-18.51-56.56-29l-4-2-1-.49-.49-.25h0s-.08,0-.1,0l0,0v0s0,.12.1-.37c.39-1.36.77-2.72,1.16-4.06l2.21-7.94c2.87-10.4,5.36-20,7.34-28.26,6.32-26.46,5.55-26.69.52-28.21s-5.79-1.75-15.17,23.78c-2.94,8-6.18,17.36-9.54,27.6-.84,2.56-1.69,5.18-2.55,7.84q-.65,2-1.29,4c-.8,2.59-1.61,5.19-2.42,7.82L163,97.52l-.63,2.08-.15.52-.08.26,0,.13,0,.07.05,0,1,.5,7.77,4,3.94,2,2.5,1.26,4,2c21.71,10.65,42.34,19.78,58,26.3,12.54,5.18,18.81,7.67,22.27,8.26s4.17-.75,5.39-3.08,1.92-3.66-.65-6.18S258,129.61,246.09,123Z"/><path class="cls-2" d="M341,234.63c8.2,5,17,10.27,27,16.27l16.13,9.58,4.39,2.6c1.33.79,3.63,2.14,3.1,1.85l.51.41-.57.33-.06,0,0,0h0l-.1.08-2.13,1.8c-1.43,1.21-2.88,2.45-4.37,3.7L366,287.35l-42.12,36.17-23.15,20q-1,2.25-1.93,4.49c-.38.84-.75,1.68-1.12,2.52l-2.23,5q-2.24,4.91-4.46,9.53-4.42,9.26-8.74,17.35c-2.84,5.41-5.72,10.35-8.48,14.89l-2.08,3.28-.26.4-.12.2-.2.29-.14.21-1.18,1.59-2.34,3.13c-3.05,4.18-6.13,8-9,11.78,6.72,3,13.19,5.78,19.43,8.6l5,2.33c1.51.68,2.95,1.4,4.38,2.11,2.84,1.42,5.61,2.76,8.22,4.18s5.18,2.7,7.6,4.09c9.73,5.43,18.06,10.53,25.65,15.65s14,9.7,19.45,14l4,3.07,3.63,2.94c2.36,1.86,4.47,3.65,6.43,5.3,4,3.24,7.1,6.12,9.85,8.4s4.84,4.21,6.64,5.64c7,5.9,8.17,4.9,10.1,3.12s3.07-2.79-2.64-10.35c-1.47-1.86-3.38-4.11-5.83-6.87s-5.52-5.95-9.37-9.62c-1.9-1.85-4-3.86-6.3-5.93l-3.6-3.27c-1.26-1.12-2.6-2.24-4-3.43-5.47-4.74-12-9.88-19.59-15.51s-16.23-11.36-26.27-17.34c-2.5-1.53-5.14-3-7.86-4.51s-5.57-3-8.53-4.59c-1.48-.78-3-1.57-4.55-2.32l-4.32-2.13c-.15-.11-.4-.24-.53-.35l.38-.34.08-.07c.08-.1-.12.22.43-.62l2.4-3.6c3.12-4.9,6.28-10.14,9.34-15.78s6.2-11.62,9.32-18c1.55-3.18,3.12-6.45,4.68-9.81l2.35-5.13,1.17-2.62.3-.67,0-.07,20-17.22,41.93-36.37,44.05-38.56-18.81-10.75-10.49-5.93-16.36-9.18C366,231,357,226,348.62,221.38c-65-35.7-65.39-35-68-30.45S277.57,196.17,341,234.63Z"/><path class="cls-2" d="M363.84,430.52a168.53,168.53,0,0,0-13.95-13.71,166.41,166.41,0,0,0-15.27-12.22c-6.91-4.77-7.26-4.38-9.5-1.86s-2.58,2.91,3,9.22a170.12,170.12,0,0,0,14,13.71,166.41,166.41,0,0,0,15.27,12.22c6.91,4.77,7.26,4.38,9.5,1.86S369.39,436.82,363.84,430.52Z"/><path class="cls-2" d="M391.33,460.05a27.92,27.92,0,0,0-9.19-11.59c-2.77-1.83-3.18-1.51-5.82.59s-3.05,2.41-1.89,5.53a27.92,27.92,0,0,0,9.19,11.59c2.76,1.83,3.17,1.51,5.81-.58S392.49,463.17,391.33,460.05Z"/><path class="cls-2" d="M368.46,180.63c7.07-9.64,15.79-22.82,24.68-37.06s16.9-27.83,22.65-38.2c9.2-16.64,8.81-16.43,6.09-18.55s-3.53-2.18-14.43,13.32c-6.86,9.72-15.47,22.94-24.34,37.16s-17,27.72-22.88,37.94c-2.35,4.1-4.14,7.1-5.41,9.44-.64,1.12-1.16,2.07-1.57,2.88s-.71,1.52-.89,2c-.75,2-.09,2.75,1.13,3.91C355.62,195.88,357.34,195.93,368.46,180.63Z"/><path class="cls-2" d="M344.14,212.94a10.18,10.18,0,0,0,5.68-6.72c.43-2.1,0-2.43-2.55-4.61s-3-2.51-5-1.74a9.3,9.3,0,0,0-3.6,2.72,9.41,9.41,0,0,0-2.08,4c-.42,2.1,0,2.43,2.55,4.61S342.14,213.72,344.14,212.94Z"/><path class="cls-2" d="M221.87,64.89A69,69,0,0,0,226.18,56a91.32,91.32,0,0,0,3.61-11.09,92.54,92.54,0,0,0,2.08-11.48,70.72,70.72,0,0,0,.41-9.86,49,49,0,0,0-.41-5.3,8.4,8.4,0,0,0-.8-2.71c-.65-1.14-1.63-1.14-3.31-1.15s-2.66,0-3.37,1a7.79,7.79,0,0,0-.9,2.51c-.33,1.18-.57,2.75-1,4.83-.52,2.59-1.13,5.6-1.79,8.88S219.2,38.44,218.31,42s-1.89,7-2.81,10.24-1.87,6.14-2.64,8.66c-.58,2-1.12,3.55-1.39,4.74a7.72,7.72,0,0,0-.38,2.63c.11,1.27,1,1.73,2.46,2.52s2.35,1.25,3.47.56a8.47,8.47,0,0,0,2-2A49.48,49.48,0,0,0,221.87,64.89Z"/><path class="cls-2" d="M215.8,88.63a4.37,4.37,0,0,0,2-5.19c-.53-1.48-1-1.67-4.16-2.88s-3.64-1.4-5-.66a4.23,4.23,0,0,0-1.93,2.24,4.17,4.17,0,0,0-.07,3c.53,1.48,1,1.67,4.16,2.88S214.42,89.37,215.8,88.63Z"/><path class="cls-2" d="M195.26,314.35c.82,2,1.73,3.81,2.33,5.31a11.73,11.73,0,0,1,.62,1.94,5.67,5.67,0,0,1,.12.72,2.5,2.5,0,0,1-.07.26c0,.19-.12.42-.19.42l.59.19c.28.12.53.21.79.35a5.33,5.33,0,0,1,1.18.79,2.48,2.48,0,0,1,.29.31l.05.06s0,.05,0,0l0-.09a1.68,1.68,0,0,1-.09-.35,5.44,5.44,0,0,1,0-1.49,8.59,8.59,0,0,1,.17-1c0-.16.08-.32.12-.47l.07-.23h0l-.18-.08a2.53,2.53,0,0,1-.33-.22,5.71,5.71,0,0,1-.95-.91,9.78,9.78,0,0,1-1.67-3.13,16.88,16.88,0,0,1-.82-4,31.48,31.48,0,0,1,0-4.45c.16-2.39.48-4.37.62-5.92a9.88,9.88,0,0,0-.09-3.54c-.48-1.7-1.89-2.26-4.34-3.2s-3.86-1.5-5.37-.52A9.16,9.16,0,0,0,185.6,298a36.67,36.67,0,0,0-3.24,6.81,32.79,32.79,0,0,0-1.72,7.05,28.58,28.58,0,0,0,.29,9,25.8,25.8,0,0,0,4.06,9.77,22.8,22.8,0,0,0,4.13,4.47,19.17,19.17,0,0,0,2.76,1.93,18.24,18.24,0,0,0,3.28,1.51,16.44,16.44,0,0,0,8.35.71,14.68,14.68,0,0,0,8.29-4.63,16,16,0,0,0,3.64-7.05,18.61,18.61,0,0,0,.37-6.51,19.78,19.78,0,0,0-.63-3.08,21.74,21.74,0,0,0-.91-2.44,25.77,25.77,0,0,0-2.08-3.83c-1.4-2.13-2.62-3.59-3.53-4.74a40.72,40.72,0,0,1-2.47-3.37,5.64,5.64,0,0,0-1.28-1.36,18.41,18.41,0,0,0-4.6-2.56,11,11,0,0,0-3-1.05,2.66,2.66,0,0,0-2.5,1.22,9.4,9.4,0,0,0-1.55,5.43A22.53,22.53,0,0,0,195.26,314.35Z"/><path class="cls-2" d="M152.32,317.12a77.55,77.55,0,0,0,1.84-13.76c.26-5,.22-10.19.17-15.32s0-9.79.28-14A94,94,0,0,1,156,262.92c1-5,1.95-7.33,1.79-9s-1.33-2.61-3.44-4.17-3.29-2.51-5.14-1.7-4.47,3.42-7.63,9.73a53.08,53.08,0,0,0-4.4,14,90.71,90.71,0,0,0-1.22,16.38c.06,5.5.37,10.6.63,15.16s.47,8.59.56,12c.14,5.45-.07,8.11.58,9.71s2.05,2.1,4.55,2.9,3.93,1.31,5.42,0S150.73,323.6,152.32,317.12Z"/><path class="cls-2" d="M375.05,280.34a13.52,13.52,0,0,0-.91-3.06,14.85,14.85,0,0,0-1.9-3.23,14.46,14.46,0,0,0-3-2.92,13.51,13.51,0,0,0-4.59-2.18,13.66,13.66,0,0,0-6-.18,15.25,15.25,0,0,0-4.94,2,21.76,21.76,0,0,0-3,2.24l-1.77,1.59a68.89,68.89,0,0,0-11.17,12.56c-2.06,3.17-3,5.13-2.83,6.63s1.39,2.4,3.49,4,3.35,2.43,4.57,2.59,2.63-.55,5.55-2.32a89,89,0,0,0,12.82-9.85l.88-.82.75-.72.43-.4.1-.11,0,0h0l-.11-.18a17.23,17.23,0,0,1-1.28-2.29,6.17,6.17,0,0,1-.42-1.19l0-.15v0l0-.2h0v.24l0,.26a4.61,4.61,0,0,1-.62,1.38,4.74,4.74,0,0,1-.72.88c-.15.12-.12.07.12-.05a1,1,0,0,1,.21-.11h.05c-.22.09.49-.23-.49.22h0l.06,0,.24.13a6.63,6.63,0,0,1,1.42,2,5.81,5.81,0,0,0,1.36,1.75c1.05.83,2.56.87,5.19.88s4.14.05,5.2-.86a4.64,4.64,0,0,0,1.28-2.41A14.2,14.2,0,0,0,375.05,280.34Z"/><path class="cls-2" d="M140.36,337.88a1.88,1.88,0,0,1-.81.07,5.09,5.09,0,0,1-1.67-.8,7.51,7.51,0,0,1-2-2.21c-.13-.24-.25-.47-.36-.7s-.24-.58-.35-.88a12.49,12.49,0,0,1-.53-2.07,22.77,22.77,0,0,1-.22-5.35c.2-4,1.42-9,2.18-15.26a83.32,83.32,0,0,0-.24-18.9c-.75-6.53-1.85-12.54-2.63-18.14A99.5,99.5,0,0,1,132.58,258a94.58,94.58,0,0,1,1.3-14.34,103.85,103.85,0,0,1,3-12.56,114.05,114.05,0,0,1,5.4-13.92c.77-1.67,1.41-3.07,2-4.23s.88-2.18,1.17-3c1.11-3.25-.06-4.23-2.13-5.84s-3.24-2.57-6.3-.24a21.43,21.43,0,0,0-2.59,2.5,45.44,45.44,0,0,0-3.34,4.16,85.22,85.22,0,0,0-8.49,15.16A92.13,92.13,0,0,0,115,257.29a101.86,101.86,0,0,0,.66,18.68c.73,6.16,1.75,12.14,2.4,17.88a73.5,73.5,0,0,1,.4,14.91c-.42,4.72-1.65,10.26-1.76,16.6a38.49,38.49,0,0,0,1,9.71,29.07,29.07,0,0,0,1.66,4.89c.35.8.75,1.57,1.18,2.35a25.88,25.88,0,0,0,1.49,2.3,23.23,23.23,0,0,0,7.94,6.83,19.36,19.36,0,0,0,10.43,2.2,16.7,16.7,0,0,0,7.73-2.58,17.61,17.61,0,0,0,5.89-6.18A15.26,15.26,0,0,0,156,337a14.81,14.81,0,0,0-1.84-6.49,23.17,23.17,0,0,0-2.39-3.47c-.7-.85-1.25-1.46-1.69-1.95s-.66-.71-.93-1a9.14,9.14,0,0,0-1.08-1.17,5.93,5.93,0,0,0-.86-.46,5.72,5.72,0,0,1-1-.62,27,27,0,0,0-2.62-1.84c-1.11-.69-2-1.32-3-1.09a3,3,0,0,0-1.7,1.31,7.28,7.28,0,0,0-1.19,3.53,13,13,0,0,0,.68,5.22,18.22,18.22,0,0,0,1.25,2.91c.46.9.95,1.75,1.36,2.53a10.52,10.52,0,0,1,.89,2,1.29,1.29,0,0,1,.07.57c-.05.15.08.1-.05.11s-.11,0-.22,0a2.46,2.46,0,0,0-.24.21A3.4,3.4,0,0,1,140.36,337.88Z"/></svg>