<svg id="Layer_1" data-name="Layer 1" xmlns="http://www.w3.org/2000/svg" viewBox="0 0 512 512"><defs><style>.cls-1{fill:#ecaa2e;opacity:0.3;}.cls-2{fill:none;stroke:#213a71;stroke-miterlimit:10;stroke-width:5px;}.cls-3{fill:#213a71;}</style></defs><path class="cls-1" d="M207.17,207.19q47.29-3.6,94.77-3.62c.52-28-8.57-55.15-18-81.49-3.83-10.73-11.32-30.21-25.94-29.19-10.88.76-16.22,17.63-20.56,25.62-7.64,14-14.91,28.32-20.44,43.34C215.7,165.46,205.45,207.32,207.17,207.19Z"/><path class="cls-2" d="M274.47,352.52c3.61.07,7.38.11,10.63-1.48,3.41-1.69,5.74-4.93,7.92-8.05,3.21-4.59,6.57-9.81,5.66-15.33Q272,325.9,245.18,325c-10.27-.35-25.72-4.76-30,7.67-2.56,7.44,0,16.36,7.9,18.72,7.43,2.23,18.26.47,26,.63Z"/><path class="cls-1" d="M198,264.28a193.36,193.36,0,0,1,111.8,7.52,450.17,450.17,0,0,0,1.09-55.46l-73.3-3.52c-10.3-.49-34.13-6.1-38.72,6.31C196.79,224.59,200.41,263.71,198,264.28Z"/><path class="cls-3" d="M117,335.56A171.41,171.41,0,0,1,140,312.47a168.46,168.46,0,0,1,30.26-20.18c22.45-11.76,49.88-18.43,78.22-18.14,28.34.49,55.58,7.91,77.68,20.29a168.28,168.28,0,0,1,29.7,21,171.45,171.45,0,0,1,22.29,23.71l.94,1.17.88,1.19,1.69,2.34c1.1,1.54,2.23,3,3.2,4.48s1.91,2.93,2.81,4.33,1.81,2.72,2.55,4.08l2.25,3.88c.72,1.25,1.46,2.43,2,3.64l3.42,6.6,2.65,5.71,1.18,2.5c.36.8.66,1.58,1,2.31,1.21,2.94,2.34,5.26,3.15,7.14,3.21,7.57,4.7,7.26,7.24,6.62s4-1,2.7-9.64c-.34-2.17-1.07-4.8-1.95-8.1-.23-.83-.45-1.7-.73-2.6l-1-2.8c-.69-1.95-1.43-4.09-2.3-6.4l-3.16-7.38c-.55-1.34-1.26-2.67-1.95-4.07l-2.19-4.34c-.72-1.52-1.61-3-2.51-4.58l-2.8-4.85c-1-1.67-2.12-3.31-3.24-5.05l-1.72-2.63c-.29-.45-.59-.89-.89-1.35l-1-1.32a173.91,173.91,0,0,0-23.38-26.88,176.09,176.09,0,0,0-32.24-24.05c-24.39-14.29-54.68-22.85-86.1-23.37-31.42-.34-61.93,7.38-86.71,21a176.14,176.14,0,0,0-32.89,23.16A173,173,0,0,0,105,326.11l-1,1.29q-.47.68-.93,1.32c-.6.88-1.2,1.74-1.79,2.59-1.16,1.71-2.34,3.31-3.37,4.95L95,341c-1,1.54-1.88,3-2.65,4.51L90,349.83c-.73,1.38-1.48,2.68-2.06,4-1.21,2.63-2.33,5.05-3.37,7.29s-1.73,4.4-2.47,6.33c-.36,1-.71,1.89-1,2.77s-.56,1.76-.81,2.58c-1,3.28-1.77,5.89-2.17,8.05-1.57,8.64-.09,9,2.43,9.7s4,1.07,7.42-6.41c.87-1.86,2.06-4.15,3.35-7,.33-.73.65-1.5,1-2.29l1.25-2.46c.85-1.72,1.79-3.59,2.8-5.64l3.61-6.5c.61-1.19,1.38-2.35,2.13-3.58l2.36-3.82c.78-1.34,1.72-2.64,2.66-4l2.93-4.25c1-1.45,2.19-2.87,3.32-4.39.58-.75,1.17-1.51,1.76-2.29l.91-1.17Z"/><path class="cls-3" d="M303.19,200.11c-13.26.1-30.81.73-49.47,1.47s-36.2,1.52-49.42,2.47c-10.57.78-15.87,1.26-18.53,2.28s-2.7,2.52-2.75,5.15-.09,4.14,2.56,5.24,8,1.82,18.68,2.64a446.72,446.72,0,0,0,50.19.62,447.51,447.51,0,0,0,50-4.61c10.6-1.67,15.85-2.81,18.41-4.12s2.4-2.81,2.14-5.43-.42-4.11-3.15-4.91S313.78,200,303.19,200.11Z"/><path class="cls-3" d="M226.49,107.19c-7.62,9.26-15.37,23-21.3,38.53s-9.06,31.07-9.25,43.15c-.26,9.61.82,14.57,2,16.9s2.7,2.14,5.31,1.87,4.12-.47,5.06-2.62,1.13-6.22,2.85-14.49a261.07,261.07,0,0,1,11.25-38.32,288.36,288.36,0,0,1,16.74-36.41c4.09-7.47,6.56-10.79,7.19-13.06s-.4-3.37-2.26-5.22-2.91-3-5.3-1.92S232.48,99.76,226.49,107.19Z"/><path class="cls-3" d="M309.41,186.66a144.81,144.81,0,0,0-3-19c-.8-3.52-1.79-7.17-3-10.9-.29-.94-.63-1.87-1-2.81s-.65-1.79-1-2.69l-2-5.3c-5.38-14.43-11.74-28.15-19-37.58-5.75-7.55-10.33-10.67-13-11.43s-3.54.65-4.95,2.84-2.15,3.51-1.44,5.36,2.92,4.44,6.49,11.46c2.21,4.39,4.59,9.81,7,15.9s4.95,12.84,7.62,19.94c1.34,3.49,2.66,6.93,3.94,10.28,1.19,3.19,2.24,6.37,3.2,9.48,1.93,6.2,3.51,12.09,5,17.21,2.27,8.18,3.47,12.38,4.86,14.33s2.88,1.73,5.47,1.33,4.09-.64,4.8-2.94S310.17,195.47,309.41,186.66Z"/><path class="cls-3" d="M273,85.53a134.63,134.63,0,0,0-40.74.34c-8.69,1.66-8.68,2.47-8.64,7.72s.05,6.06,8.76,7.58a118.39,118.39,0,0,0,20.39,1.39,117.83,117.83,0,0,0,20.36-1.72c8.68-1.67,8.67-2.47,8.63-7.72S281.66,87.06,273,85.53Z"/><path class="cls-3" d="M244.69,57.93a22.66,22.66,0,0,0-1.36,9.19,22.17,22.17,0,0,0,1.73,8.19c.77,1.66,1.3,2.48,2.32,3s2.54.64,5.15.87,4.12.38,5.21-.05,1.79-1.47,2.62-3.51a22.73,22.73,0,0,0,1.37-9.2A22.36,22.36,0,0,0,260,58.21c-.77-1.67-1.3-2.48-2.32-3s-2.53-.63-5.15-.86-4.12-.38-5.21.05S245.53,55.89,244.69,57.93Z"/><path class="cls-3" d="M67.4,285.36a7.81,7.81,0,0,0,1.07-4.89,7.7,7.7,0,0,0-2-4.58c-1.79-1.86-2.6-1.78-7.82-1.26s-6,.6-7.41,2.78a8.11,8.11,0,0,0,.94,9.48c1.79,1.86,2.59,1.78,7.82,1.26S66,287.54,67.4,285.36Z"/><path class="cls-3" d="M405.12,428.8c-41.65-.9-97-1.18-156-.69s-114.29,1.71-156,3.89l-11.77.72-2.7.17-1.32.08-.66,0-.23,0-1.59.23-1.61.24-.21,0H73v-.06l0-.24-.07-.48c0-.35-.09-.68-.14-1l-.07-.51,0-.13v-.45l0-.89c-.38-9.35-.79-15.59-1.32-19.75-1.06-8.31-2.57-8.31-5.2-8.31s-4.14,0-5.2,8.31c-.53,4.16-.94,10.39-1.33,19.75l0,.89,0,1.22c0,1.05,0,2.13-.07,3.22q-.06,3.33-.14,6.93c0,1.21,0,2.45-.07,3.71q0,.94,0,1.92v.48s0,.05,0,.06h.39l.9,0,7.59-.3,8.28-.34,1,0h2l2.68,0,11.64-.13c41.51-.17,96.87-.27,155.71-.78s114.2-1.31,155.83-2.41l21.94-.61,2.35-.08,1.18,0,1.83,0,6.92-.13,6.3-.14,1.48,0,.73,0h.18a1.2,1.2,0,0,0,0-.19v-.41l-.07-3.12c-.1-4-.2-7.68-.29-11,0-.39,0-.78,0-1.16l0-.71c0-.47-.05-.93-.07-1.38-.06-.89-.11-1.74-.16-2.56-.22-3.24-.46-5.84-.72-7.92-1.06-8.32-2.57-8.32-5.2-8.32s-4.14,0-5.2,8.32c-.26,2.08-.5,4.68-.71,7.92-.05.82-.11,1.67-.16,2.56,0,.45,0,.91-.08,1.38l0,.71a.83.83,0,0,1,0,.18l0,.12c-.09.57-.19,1.18-.29,1.86l-.07.45c0,.11-.14.07-.27.06l-.4,0-1.62-.14-1.64-.14-.41,0-1.1,0-2.35-.07Z"/><path class="cls-3" d="M183.23,389.91c-12.29-.38-28.58-.37-45.9-.23s-33.6.39-45.89,1c-9.81.47-14.74.82-17.24,1.76s-2.59,2.46-2.72,5.08-.21,4.13,2.21,5.3,7.35,2,17.25,3.16a400.07,400.07,0,0,0,46.54,2.14A399.07,399.07,0,0,0,184,405.2c9.88-1.28,14.79-2.22,17.19-3.43s2.31-2.72,2.13-5.34-.28-4.13-2.79-5S193.06,390.23,183.23,389.91Z"/><path class="cls-3" d="M418.36,391.94c-12.59-.9-29.34-1.32-47.15-1.17s-34.55.82-47.13,1.92C304,394.45,304,395.26,304,400.51s.05,6.06,20.18,7.49c12.6.9,29.35,1.32,47.15,1.18s34.55-.83,47.14-1.93c20.1-1.76,20.1-2.56,20.05-7.81S438.5,393.38,418.36,391.94Z"/><path class="cls-3" d="M228.19,417.86c.78-10.68,1.31-24.88,1.5-40,0-3.78.05-7.5.08-11.13a41.68,41.68,0,0,0-1.17-12.06c-.15-.54-.33-1.07-.53-1.59l-.65-1.52a21.35,21.35,0,0,0-1.52-2.8c-.53-.89-1.16-1.65-1.74-2.45s-1.23-1.42-1.84-2.08a59.42,59.42,0,0,0-7.13-6.06c-3.45-2.55-5.76-4.32-7.34-5.72-.42-.35-.77-.67-1.08-1l-.89-.79a9.94,9.94,0,0,0-1.34-1.17c-1.4-1.23-2.34-.89-3.86-.17s-2.46,1.06-1.87,3.6a16.1,16.1,0,0,0,.93,2.22c.23.43.51.87.82,1.37a15,15,0,0,0,1.08,1.54,64,64,0,0,0,7.2,7.61,67.12,67.12,0,0,1,5.52,5.69,15.66,15.66,0,0,1,3.31,6.24,35.5,35.5,0,0,1,.39,8.89c-.06,3.63-.13,7.35-.2,11.13-.19,15.11,0,29.33.49,40,.81,17.09,1.32,17.1,4.7,17.16S227,434.92,228.19,417.86Z"/><path class="cls-3" d="M293,415.14c0-10.48-.4-24.38-1.25-39.16-.22-3.69-.45-7.33-.69-10.87a52.5,52.5,0,0,1-.14-9.19,13,13,0,0,1,.8-3.32c.16-.53.47-1,.68-1.54s.56-1,.89-1.5a42.33,42.33,0,0,1,4.79-5.7,96.91,96.91,0,0,0,6.75-7.37,25.78,25.78,0,0,0,1.88-2.75,14.46,14.46,0,0,0,1-2.1c.7-2.4-.21-2.83-1.68-3.65s-2.35-1.23-3.86-.09a12.85,12.85,0,0,0-1.39,1.12l-2,1.72c-1.63,1.41-3.92,3.15-7.31,5.88a43.68,43.68,0,0,0-6.75,6.62c-.57.71-1.1,1.52-1.64,2.31a26.9,26.9,0,0,0-1.43,2.66,22.88,22.88,0,0,0-1.86,6,54.48,54.48,0,0,0-.37,11.42c.16,3.54.35,7.18.56,10.87.85,14.78,2,28.65,3.25,39.07,2,16.64,2.5,16.62,5.88,16.47S292.9,431.87,293,415.14Z"/><path class="cls-3" d="M285.07,448.71c-4.26-.14-9.2-.24-14.56-.25s-11.15,0-17.12,0-11.75,0-17.11,0-10.3.11-14.56.25c-6.81.25-10.24.45-12.05,1.32s-2,2.38-2.28,5-.48,4.11,1.14,5.34,5,2.25,12,3.61a151.62,151.62,0,0,0,15,2.08c5.58.49,11.63.78,17.87.79s12.3-.3,17.88-.79a148.7,148.7,0,0,0,15-2.08c6.93-1.36,10.35-2.37,12-3.6s1.44-2.74,1.14-5.35-.47-4.11-2.28-5S291.88,449,285.07,448.71Z"/><path class="cls-3" d="M290.14,320.73c-9.73.16-22.75,0-36.68-.14s-27.12-.35-37.09,0c-8,.26-12,.57-14,1.22s-2,1.62-2,3.3,0,2.67,1.93,3.38,5.88,1.17,13.78,1.93c9.88.95,23.09,1.81,37.23,2s27.54-.41,37.61-1.89c8-1.14,12-2.21,13.93-3.19s1.72-1.93,1.43-3.6-.47-2.62-2.49-3S297.93,320.64,290.14,320.73Z"/><path class="cls-3" d="M269.25,315a61.47,61.47,0,0,0-.91-12.85c-.11-.59-.2-1.19-.33-1.79s-.24-1-.35-1.56l-.42-1.64c-.32-1.08-.63-2.17-.95-3.26s-.72-2.12-1.08-3.19c-.18-.53-.36-1.08-.56-1.58l-.7-1.27-.7-1.27a3.53,3.53,0,0,0-.36-.59l-.39-.38c-.51-.48-1-1-1.55-1.46a7.48,7.48,0,0,0-1.64-.85l-.64-.23a8.18,8.18,0,0,0-4.75.09,8.59,8.59,0,0,0-3.4,2.16,10.46,10.46,0,0,0-1.29,1.71,8,8,0,0,0-.62,1l-.54,1.27-.54,1.26c-.14.49-.26,1-.39,1.52-.25,1-.51,2-.7,3.05s-.44,2-.59,3.07-.32,2-.48,2.93-.23,2.15-.32,3.18c-.16,2.06-.24,4-.23,5.81,0,5.89.52,8.8,1.19,10.24s1.67,1.41,3.36,1.37,2.66-.07,3.32-1.43,1-4.06,1.93-9.34c.3-1.61.64-3.34,1-5.17.2-.91.4-1.85.61-2.81,0-.13,0-.09,0-.1l0,0,0,0,.07,0c.19-.09.25.16.24.18h0a.11.11,0,0,1,.05-.07h.13l0,.11c.15.5.27,1,.4,1.5a110.15,110.15,0,0,1,2.16,11c.72,5.22.82,7.9,1.41,9.28s1.52,1.5,3.2,1.67,2.65.29,3.46-1.11S269,321,269.25,315Z"/><path class="cls-3" d="M273.85,346.65c-6.05-.35-14.06-.44-22.56-.38s-16.51.24-22.56.67c-9.66.66-9.7,1.1-9.88,4.49s-.22,3.94,9.54,5.34a179.52,179.52,0,0,0,45.93-.29c9.73-1.53,9.68-2.12,9.46-5.46S283.52,347.18,273.85,346.65Z"/><path class="cls-3" d="M239.57,369.26a65,65,0,0,1,8.13-6.71,27.64,27.64,0,0,1,4.52-2.57,11.17,11.17,0,0,1,4.25-1,9.44,9.44,0,0,1,4.09,1,16.15,16.15,0,0,1,4.17,3,32,32,0,0,1,3.86,4.76c.63.92,1.25,1.89,1.88,2.91l2,3.22,2.52,4,.56.88.13.21,0,0h0a0,0,0,0,1,0,.06l0,0s0,0-.08,0c-.41.09-.84.16-1.27.24a91.87,91.87,0,0,1-10.9.87c-7.24.21-14,.09-19.87,0-11.27-.18-17-.28-19.92.25s-3,1.51-3,3.19-.1,2.64,2.64,3.48,8.35,1.69,19.75,2.91c6,.61,12.82,1.18,20.54,1.3a90.26,90.26,0,0,0,12.49-.6c.57-.08,1.15-.16,1.75-.27.89-.18,2-.4,2.92-.69a14.58,14.58,0,0,0,5.2-2.58,8.52,8.52,0,0,0,2.88-4.6,8.67,8.67,0,0,0-.63-5.48c-.45-.94-1-2-1.68-3.11l-.9-1.5c-.2-.31-.39-.63-.59-1l-2.55-4c-2.52-4-5.34-8.94-9.61-13a26.8,26.8,0,0,0-7.5-5.07,20.23,20.23,0,0,0-9.28-1.81,21.74,21.74,0,0,0-8.49,2.28,36.06,36.06,0,0,0-6.23,4,65,65,0,0,0-9,8.6,60.33,60.33,0,0,0-7.92,11.61,29.53,29.53,0,0,0-2.65,6.68c-.64,3,.31,3.37,1.85,4s2.45,1,4.19-1.16c.87-1.07,2-2.75,3.77-5.18A70.68,70.68,0,0,1,239.57,369.26Z"/><path class="cls-3" d="M324.71,368a12.27,12.27,0,0,0,.48-2.51,10.86,10.86,0,0,0,.06-1.45,12.67,12.67,0,0,0-.17-1.73,10.62,10.62,0,0,0-9.66-9,12.42,12.42,0,0,0-3.15.14,12.87,12.87,0,0,0-2.91.86,14.74,14.74,0,0,0-4.78,3.26,13.1,13.1,0,0,0-1,1.18l-.47.64-.39.6a17.82,17.82,0,0,0-1.29,2.49,29.77,29.77,0,0,0-2,9.66c-.19,2.86-.32,5.7-.43,8.59-.51,14.52-.48,28.09-.17,38.32.5,16.32.9,16.27,4.3,16.47s4,.16,5.54-16.17c1-10.21,1.65-23.81,2.16-38.18.11-2.82.23-5.6.33-8.31a20.92,20.92,0,0,1,.91-6,5.77,5.77,0,0,1,.41-.93l.11-.21a.44.44,0,0,0,.08-.11c0-.09.12-.16.17-.25a3.66,3.66,0,0,1,1-.86c.09-.06.18-.09.27-.14s0,0,.07-.06l.12-.07a.53.53,0,0,1,.33-.05c.36.22.59.25.5,1.49a4.77,4.77,0,0,1-.34,1.29c-.08.2-.17.33-.25.5s-.29.4-.45.59a11.16,11.16,0,0,1-2.16,1.87c-1.52,1-2.83,1.72-3.63,2.35-1.66,1.23-1.43,2.16-.92,3.78s.74,2.57,3,2.57a15.41,15.41,0,0,0,5.38-1.22,16.89,16.89,0,0,0,4.52-2.66,16.23,16.23,0,0,0,1.26-1.14,13.69,13.69,0,0,0,3.17-5.57Z"/><path class="cls-3" d="M187.46,365.74a.71.71,0,0,1,.77-.75.56.56,0,0,1,.23.05,2,2,0,0,0,.54.15,10.41,10.41,0,0,1,1.4.49,10.57,10.57,0,0,1,1.5.76,17,17,0,0,1,5.4,5.43,22.51,22.51,0,0,1,2,3.82,32,32,0,0,1,1.37,4.47,63.23,63.23,0,0,1,1.34,10c.12,1.72.22,3.48.29,5.15s.15,3.45.22,5.12c.3,6.76.69,13,1.24,18.36.85,8.57,1.69,12.95,2.73,15.17a4.57,4.57,0,0,0,.82,1.27,1.9,1.9,0,0,0,.86.55,4.09,4.09,0,0,0,2-.27,5.55,5.55,0,0,0,1.92-.78,2,2,0,0,0,.59-.69,3.69,3.69,0,0,0,.37-1.14c.38-2,.32-6.07.5-14.51.1-5.27.22-11.43.25-18.18V395c0-1.84-.06-3.64-.14-5.53a66.48,66.48,0,0,0-1.5-12,41.36,41.36,0,0,0-2-6.21,33.08,33.08,0,0,0-3.15-5.87,27.12,27.12,0,0,0-9.7-8.88,22.12,22.12,0,0,0-3-1.32,20,20,0,0,0-3.31-.86,15.13,15.13,0,0,0-1.94-.2,10.84,10.84,0,0,0-1.14,0,10.2,10.2,0,0,0-1.12.07,12.76,12.76,0,0,0-4.16,1.09,10.23,10.23,0,0,0-5.32,5.48,10.12,10.12,0,0,0-.05,7,12.49,12.49,0,0,0,6.6,7.09,9.83,9.83,0,0,0,1,.37l.83.24a13.13,13.13,0,0,0,1.52.3,15.51,15.51,0,0,0,8.41-1.18c2.08-1.07,1.83-2,1.51-3.69s-.56-2.58-2.66-2.89c-1-.18-2.55-.16-4.26-.48a8,8,0,0,1-1.25-.33c-.2-.07-.39-.16-.59-.24l-.27-.15c-.08,0-.08-.08-.13-.1A1.39,1.39,0,0,1,187.46,365.74Z"/><path class="cls-3" d="M224.45,223.69c-1.71.43-3.59.69-6,1.13a41,41,0,0,0-8.17,2.17,22.34,22.34,0,0,0-4.67,2.52c-.38.3-.77.59-1.15.9l-1.1,1a18.56,18.56,0,0,0-1.94,2.29c-1.09,1.52-1.82,2.87-2.43,3.77a5.23,5.23,0,0,1-1.2,1.45,1.3,1.3,0,0,1-.71.16,3.31,3.31,0,0,1-1.43-.34,3.54,3.54,0,0,1-1.24-1,6.44,6.44,0,0,1-1-1.82,10.38,10.38,0,0,1-.61-2.38c-.05-.42-.1-.85-.11-1.28l0-1c0-.34,0-.67,0-1-.18-2.52-.44-4.69-.67-6.73-.77-6.47-1-9.52-1.55-10.89a2.11,2.11,0,0,0-.46-.79,2.85,2.85,0,0,0-.63-.46,9.63,9.63,0,0,0-1.92-.77,4.29,4.29,0,0,0-2-.36,1.57,1.57,0,0,0-.86.48,3.84,3.84,0,0,0-.75,1.09c-.92,1.89-1.41,5.41-1.65,12.07-.06,2-.13,4.21-.2,6.54,0,.26,0,.52,0,.78s0,.52-.05.78a21.44,21.44,0,0,0,0,2.41,20.58,20.58,0,0,0,.87,5.11,17.39,17.39,0,0,0,2.6,5.23,14.87,14.87,0,0,0,11.65,6.13,12.91,12.91,0,0,0,7.49-2.12,16,16,0,0,0,4.56-4.9c.94-1.5,1.54-2.65,2.06-3.41a9.71,9.71,0,0,1,.7-.91l.39-.4.44-.38a12,12,0,0,1,2.26-1.39,40.5,40.5,0,0,1,6.1-2.15,57.74,57.74,0,0,0,6.79-2.22,22.67,22.67,0,0,0,7.8-5,9.71,9.71,0,0,0,2.69-4.5,2.27,2.27,0,0,0-.36-2.2,5,5,0,0,0-1.83-.94c-1.59-.61-2.5-.81-3.6-.18-.57.31-1.19.8-2.32,1.42A20.72,20.72,0,0,1,224.45,223.69Z"/><path class="cls-3" d="M56.27,284.15a133,133,0,0,0,18.14-7.46,199.81,199.81,0,0,0,18.65-11c6.24-4.1,12.42-8.54,18.72-13.08l9.5-6.88,4.89-3.6c1.64-1.22,3.32-2.43,4.93-3.71,6.58-5,12.79-10.25,18.75-15.42s11.55-10.42,16.83-15.52c10.55-10.22,19.74-20,27.41-28.56,12.24-13.69,18-20.77,20.41-24.79s1.28-5.08-.62-6.89-3-2.85-6.91-.27-10.59,8.81-23.82,21.25c-16.62,15.5-38.28,36.36-63.28,55.61-1.54,1.22-3.13,2.38-4.69,3.55l-4.72,3.52L101,238c-6.19,4.62-12.14,9.14-17.87,13.21S71.85,258.9,66.51,262A144.48,144.48,0,0,1,51,269.76,157,157,0,0,1,32.14,276c-2.39.56-4.39,1.08-6.05,1.56s-3,.8-4.08,1.2c-4.28,1.52-4.19,3-4,5.65s.32,4.12,5.11,4.68a31.41,31.41,0,0,0,4.55.19c1.86-.07,4.09-.22,6.77-.45A119.54,119.54,0,0,0,56.27,284.15Z"/><path class="cls-3" d="M102.19,267.76a10.64,10.64,0,0,0-3.79-10.42c-2.31-1.68-3.07-1.41-8,.39s-5.69,2.07-6.38,4.84A10.64,10.64,0,0,0,87.81,273c2.31,1.68,3.06,1.41,8-.39S101.5,270.53,102.19,267.76Z"/><path class="cls-3" d="M138.87,244.51a11.2,11.2,0,0,0-4.85-8.24,4.91,4.91,0,0,0-2.89-1.1,25,25,0,0,0-5.12,1c-2.55.63-4,1-4.94,1.63s-1.31,1.6-1.53,3.45a14.32,14.32,0,0,0,8,13.53c1.72.71,2.74.83,3.75.34s2-1.61,3.83-3.52a24,24,0,0,0,3.34-4A4.88,4.88,0,0,0,138.87,244.51Z"/><path class="cls-3" d="M170.67,220.2a16.85,16.85,0,0,0-9-10.91c-3.15-1.31-3.78-.8-7.83,2.54s-4.68,3.85-4,7.19a16.79,16.79,0,0,0,9,10.91c3.15,1.32,3.77.81,7.83-2.53S171.36,223.55,170.67,220.2Z"/><path class="cls-3" d="M214.43,249.83a19.75,19.75,0,0,0,6.71.44,58.87,58.87,0,0,0,6.46-1.1,41.07,41.07,0,0,1,4.73-.78,15.68,15.68,0,0,1,3.13.07,13,13,0,0,0,2.67.31,9.44,9.44,0,0,0,3.15-1.22c1.5-.77,2.4-1.15,2.53-2.3a4.08,4.08,0,0,0-.68-2.28,10.83,10.83,0,0,0-3-3.19,15.11,15.11,0,0,0-7.1-2.69,24.27,24.27,0,0,0-7.8.49c-2.36.49-4.33,1.09-5.88,1.51s-2.89.74-3.95.95c-1.69.33-2.44.33-3.13.77a7.45,7.45,0,0,0-2.05,2.68c-.85,1.45-1.39,2.27-1,3.27S211.16,249,214.43,249.83Z"/><path class="cls-3" d="M278,233a57.74,57.74,0,0,0,6.79,2.22,40.5,40.5,0,0,1,6.1,2.15,12.32,12.32,0,0,1,2.26,1.39l.44.38c.12.14.26.27.39.4a9.71,9.71,0,0,1,.7.91c.52.76,1.12,1.91,2.06,3.41a16,16,0,0,0,4.56,4.9,12.91,12.91,0,0,0,7.49,2.12,14.88,14.88,0,0,0,6.68-1.78,15.07,15.07,0,0,0,5-4.35,17.71,17.71,0,0,0,2.59-5.23,20.73,20.73,0,0,0,.87-5.11,21.44,21.44,0,0,0,0-2.41l-.05-.78,0-.78c-.07-2.33-.14-4.52-.2-6.54-.24-6.66-.73-10.18-1.65-12.07a3.84,3.84,0,0,0-.75-1.09,1.6,1.6,0,0,0-.86-.48,4.35,4.35,0,0,0-2,.36,9.89,9.89,0,0,0-1.92.77,3.41,3.41,0,0,0-.63.46,2.25,2.25,0,0,0-.45.79c-.51,1.37-.78,4.42-1.55,10.89-.23,2-.49,4.21-.67,6.73l0,1,0,1c0,.43-.06.86-.11,1.28a10.38,10.38,0,0,1-.61,2.38,6.44,6.44,0,0,1-1,1.82,3.54,3.54,0,0,1-1.24,1,3.34,3.34,0,0,1-1.43.34,1.3,1.3,0,0,1-.71-.16,5.23,5.23,0,0,1-1.2-1.45c-.61-.9-1.34-2.25-2.43-3.77a18.56,18.56,0,0,0-1.94-2.29l-1.1-1c-.38-.31-.77-.6-1.15-.89a22.13,22.13,0,0,0-4.66-2.53,41.22,41.22,0,0,0-8.18-2.17c-2.46-.44-4.34-.7-6-1.13a20.72,20.72,0,0,1-5.54-2.07c-1.13-.63-1.75-1.11-2.31-1.42-1.11-.64-2-.43-3.61.18a4.9,4.9,0,0,0-1.82.94,2.24,2.24,0,0,0-.37,2.2,9.71,9.71,0,0,0,2.69,4.5A22.67,22.67,0,0,0,278,233Z"/><path class="cls-3" d="M460,272a192.53,192.53,0,0,1-33.58-18.61c-6-4-12.16-8.46-18.53-13.14l-9.7-7.14-4.94-3.63-4.85-3.62c-12.92-9.78-25-20-35.91-29.83S331.7,177,323.18,169c-13.6-12.79-20.45-19.24-24.46-21.89s-5.09-1.62-7,.19-3,2.85-.53,7,8.44,11.37,21.05,25.43c7.91,8.78,17.37,18.84,28.28,29.29a412.91,412.91,0,0,0,36.78,31.6l5.09,3.79,5,3.61,9.87,7.07c6.54,4.65,13.1,9.09,19.6,13.15,13,8.18,26.11,14.45,37.92,18.22a131.51,131.51,0,0,0,22.28,5c2.75.26,5.05.43,7,.52a31.55,31.55,0,0,0,4.69-.14c4.93-.53,5-2,5.25-4.65s.32-4.13-4.07-5.68c-1.09-.41-2.48-.72-4.18-1.24s-3.75-1-6.2-1.63A171.12,171.12,0,0,1,460,272Z"/><path class="cls-3" d="M417.8,273a10.64,10.64,0,0,0,3.79-10.42c-.69-2.77-1.45-3.05-6.38-4.84s-5.69-2.07-8-.39a10.64,10.64,0,0,0-3.79,10.42c.69,2.77,1.44,3,6.38,4.84S415.49,274.67,417.8,273Z"/><path class="cls-3" d="M460.39,292.26a10.7,10.7,0,0,0,3.79-10.43c-.69-2.77-1.45-3-6.39-4.84s-5.69-2.07-8-.39A10.7,10.7,0,0,0,446,287c.7,2.77,1.45,3,6.39,4.83S458.08,293.94,460.39,292.26Z"/><path class="cls-3" d="M378.11,254.76a14.32,14.32,0,0,0,8-13.53c-.22-1.85-.61-2.8-1.53-3.45s-2.4-1-5-1.63a24.2,24.2,0,0,0-5.11-1,4.89,4.89,0,0,0-2.89,1.1,11.2,11.2,0,0,0-4.85,8.24,4.91,4.91,0,0,0,.44,3.06,24.1,24.1,0,0,0,3.34,4c1.8,1.92,2.82,3,3.83,3.53S376.39,255.47,378.11,254.76Z"/><path class="cls-3" d="M346.76,229.93a16.79,16.79,0,0,0,9-10.91c.69-3.34.06-3.85-4-7.19s-4.68-3.85-7.83-2.54a16.85,16.85,0,0,0-9,10.91c-.69,3.35-.07,3.86,4,7.2S343.61,231.25,346.76,229.93Z"/><path class="cls-3" d="M286.2,240c-1.06-.21-2.38-.52-3.94-.95s-3.53-1-5.89-1.51a24.27,24.27,0,0,0-7.8-.49,15.21,15.21,0,0,0-7.1,2.69,10.83,10.83,0,0,0-3,3.19,4.17,4.17,0,0,0-.68,2.29c.13,1.14,1,1.53,2.54,2.29a9.41,9.41,0,0,0,3.14,1.22,12.26,12.26,0,0,0,2.67-.31,15.68,15.68,0,0,1,3.13-.07,41.07,41.07,0,0,1,4.73.78,58.87,58.87,0,0,0,6.46,1.1,19.75,19.75,0,0,0,6.71-.44c3.27-.85,4.79-2.13,5.21-3.06s-.11-1.82-1-3.28a7.33,7.33,0,0,0-2.06-2.68C288.64,240.37,287.89,240.37,286.2,240Z"/><path class="cls-3" d="M284.9,196.32c.22-.35.45-.79.67-1.22l.34-.66c.11-.24.22-.52.33-.78a13.43,13.43,0,0,0,.61-1.76,18.58,18.58,0,0,0,.42-1.83,25.07,25.07,0,0,0,.39-6.31,23.23,23.23,0,0,0-1.52-7,20.14,20.14,0,0,0-4.57-7,21.8,21.8,0,0,0-7.13-4.67,32.85,32.85,0,0,0-7-1.93c-2.2-.36-4.11-.56-6.15-.72s-4.06-.24-6.13-.25-4.11.05-6.13.19a45.2,45.2,0,0,0-6.7.89,24.91,24.91,0,0,0-7.61,3,20,20,0,0,0-6.49,6.29,21.36,21.36,0,0,0-3,7.57,23.94,23.94,0,0,0-.25,7,25.84,25.84,0,0,0,1.45,6.18,25.44,25.44,0,0,0,1.21,2.74c.42.82.88,1.59,1.34,2.32a34.23,34.23,0,0,0,4.36,5.39A35.81,35.81,0,0,0,237,206.9a16.32,16.32,0,0,0,4.75,2.74c2.3.67,3.31-.47,5.08-2.4s2.77-3.07,2-5.24a21.32,21.32,0,0,0-2.46-4.2,35.51,35.51,0,0,1-3.87-6.82c-.16-.43-.31-.86-.43-1.3a8.63,8.63,0,0,1-.26-1.18,11.84,11.84,0,0,1-.15-2.46,6,6,0,0,1,1.23-3.71,3,3,0,0,1,.92-.61,9.28,9.28,0,0,1,2.29-.65,59.67,59.67,0,0,1,9-.5c1.67,0,3.32.06,4.95.16s3.32.23,4.65.4a18.51,18.51,0,0,1,3.24.66,6.37,6.37,0,0,1,1.51.68,4.87,4.87,0,0,1,1.7,3.05,11.29,11.29,0,0,1,.27,2.48.66.66,0,0,0,0,.25.36.36,0,0,1,0,.22c0,.06,0,.11,0,.19l-.08.27a3.58,3.58,0,0,1-.17.58,35.11,35.11,0,0,1-1.88,4.21l-1.84,3.61a19.29,19.29,0,0,0-1.89,5.06,3.31,3.31,0,0,0,.62,2.87,9.34,9.34,0,0,0,2.66,1.77,14.17,14.17,0,0,0,2.93,1.3,3.25,3.25,0,0,0,2.52-.28,17,17,0,0,0,3.8-3.17c.85-.86,1.82-1.9,2.95-3.25A40.14,40.14,0,0,0,284.9,196.32Z"/><path class="cls-3" d="M262,150.31a146.35,146.35,0,0,0,.82-23.25,160.53,160.53,0,0,0-2.28-23c-1.83-9.76-2.59-9.73-7.85-9.68s-6.09.08-7.45,10.07a145.35,145.35,0,0,0-.82,23.26,159.54,159.54,0,0,0,2.27,23c1.83,9.75,2.58,9.73,7.85,9.68S260.59,160.31,262,150.31Z"/><path class="cls-3" d="M318.58,269.87a46.94,46.94,0,0,0,1.15-10.25,47.72,47.72,0,0,0-.85-10.28c-1-4.4-1.49-4.41-4.86-4.46s-3.9,0-5,4.32a46.87,46.87,0,0,0-1.15,10.25,47.78,47.78,0,0,0,.85,10.28c1,4.39,1.48,4.4,4.86,4.45S317.49,274.23,318.58,269.87Z"/><path class="cls-3" d="M196.72,264.34a43.88,43.88,0,0,0,0-18.63c-1-4-1.55-4-4.92-4s-3.89,0-4.92,4a43.88,43.88,0,0,0,0,18.63c1,4,1.54,4,4.92,4S195.7,268.32,196.72,264.34Z"/><path class="cls-3" d="M104.22,364.51a33.3,33.3,0,0,0-7.68,14.16c-.73,3.51-.27,3.76,2.69,5.37s3.43,1.86,6-.68a33,33,0,0,0,7.67-14.16c.74-3.51.28-3.76-2.68-5.36S106.76,362,104.22,364.51Z"/><path class="cls-3" d="M132,338.22l3.19-3.05,3.57-3.09c2.39-2.21,5.19-4.22,7.95-6.47a151,151,0,0,1,40-21.66c3.41-1.08,6.62-2.33,9.77-3.12l4.55-1.29,4.3-1c1.1-.26,2.13-.53,3.1-.74l2.75-.5c1.71-.32,3.18-.62,4.44-.89a31.74,31.74,0,0,0,5.35-1.15c2.25-.81,2.24-1.79,2.2-3.47s-.06-2.66-2.49-3.21a33.41,33.41,0,0,0-5.79-.52c-1.37,0-3,.1-4.83.2l-3,.17c-1.07.1-2.2.26-3.41.41l-4.73.62c-1.62.29-3.29.64-5,1-3.47.62-7,1.74-10.78,2.76a128.22,128.22,0,0,0-43.46,23.51c-2.9,2.59-5.79,4.95-8.21,7.52-1.23,1.25-2.44,2.46-3.57,3.65l-3.11,3.62c-.79.94-1.54,1.8-2.2,2.64l-1.79,2.41c-1.11,1.51-2,2.81-2.82,3.93a33.46,33.46,0,0,0-2.73,5.14c-.87,2.33-.06,2.87,1.33,3.83s2.19,1.51,4.11.06a31,31,0,0,0,3.89-3.85c.92-.9,2-2,3.17-3.22l1.92-2C130.35,339.72,131.14,339,132,338.22Z"/><path class="cls-3" d="M387.73,367a116.57,116.57,0,0,0-23.09-28.9c-6-5.2-6.46-4.78-8.92-2.5s-2.8,2.62,1.56,9c2.71,4,6.58,9.08,10.81,14.38s8.33,10.18,11.65,13.72c5.29,5.66,5.67,5.43,8.47,3.51S391.48,374,387.73,367Z"/><path class="cls-3" d="M233.37,86a2,2,0,0,1,.5-.09,3,3,0,0,1,.94.4l.1,0c.06,0-.07,0,.29,0H240l13.95-.07,15.32-.1h.89a5.31,5.31,0,0,0,.66,0l.37-.09.2,0,.1-.06.22-.13.61-.27c.16-.08.15,0,.23,0a.81.81,0,0,1,.18.1,2.56,2.56,0,0,1,.57.57c.1.14.2.26.28.38s.1.37.14.57.1.46.15.68a10.71,10.71,0,0,0,1.33,3.69c1.06,1.55,2.58,1.55,5.2,1.54s4.14,0,5.19-1.56a10.73,10.73,0,0,0,1.32-3.69l.14-.68a7.14,7.14,0,0,0,.14-.91c.08-.91.17-1.89.27-3,.18-2.14.37-4.66.54-7.6l.15-2.85c0-.49.05-1,.07-1.49a2.88,2.88,0,0,0,0-.72l-.69-.09-5.85-.75-3.15-.37-1.62-.18-1.55-.15-5.3-.51a155,155,0,0,0-16.21-.72c-5.15,0-10.16.29-14.77.75-1.15.12-2.28.24-3.37.38l-4.3.57a21.77,21.77,0,0,0-5.26,1.07,12.39,12.39,0,0,0-4,2.37,10.5,10.5,0,0,0-2.71,3.49,13.68,13.68,0,0,0-1.26,6.76,21.46,21.46,0,0,0,1,5.26l.17.53,0,.13a.24.24,0,0,0,0,.11l0,.1.2.38a3.71,3.71,0,0,0,.36.53,2.14,2.14,0,0,0,.69.55c1,.46,2.32,1.21,4.76,2.2a9.23,9.23,0,0,0,3,.93,2.8,2.8,0,0,0,2.49-1.73,8,8,0,0,0,.83-2.4c.09-.47.15-1,.2-1.48l0-.76v-.2s0-.06,0,0l0,0,0-.1C232.53,86.75,232.76,86.21,233.37,86Z"/></svg>