<svg id="Layer_1" data-name="Layer 1" xmlns="http://www.w3.org/2000/svg" viewBox="0 0 512 512"><defs><style>.cls-1{fill:#ecaa2e;opacity:0.3;}.cls-2{fill:#213a71;}</style></defs><path class="cls-1" d="M286.67,283C288,348.76,259.51,383.58,226,383.58s-50.87,27-60.67-100.56S192.49,182.45,226,182.45,285.32,217.28,286.67,283Z"/><path class="cls-2" d="M285.77,111.72a64.48,64.48,0,0,0-.91-27.33,59.49,59.49,0,0,0-2.33-7.23,72.85,72.85,0,0,0-3.4-7.09c-.62-1.18-1.41-2.27-2.13-3.42L275.89,65c-.37-.57-.83-1.08-1.25-1.62L272,60.11l-2.93-3A32.54,32.54,0,0,0,266,54.32a32.89,32.89,0,0,0-3.36-2.62c-1.19-.8-2.37-1.62-3.58-2.41l-3.82-2.08a57.06,57.06,0,0,0-35-5.58c-1.52.28-3,.56-4.57.87l-4.48,1.3-1.12.34-1.08.44-2.17.88-2.17.9-2.2,1.11a49.81,49.81,0,0,0-8.07,5.4,56.7,56.7,0,0,0-6.72,6.6,63.87,63.87,0,0,0-5.38,7.37A68.57,68.57,0,0,0,178,74.67,70.73,70.73,0,0,0,175,82.75c-.45,1.36-.78,2.74-1.16,4.1s-.66,2.74-.89,4.12a72.56,72.56,0,0,0-1.24,16.43,65.05,65.05,0,0,0,2.57,15.85,53.88,53.88,0,0,0,6.61,14.22,50.36,50.36,0,0,0,21.6,18.22,56.24,56.24,0,0,0,17.46,4.62,59.33,59.33,0,0,0,13.32-.22,45.1,45.1,0,0,0,15-4.52,16.31,16.31,0,0,0,3.19-2.16,4.62,4.62,0,0,0,1.28-1.79c.38-1.08-.07-2-.63-3.2s-1-2.13-2-2.6a4.36,4.36,0,0,0-2-.36,21.7,21.7,0,0,0-3.28.28,95.25,95.25,0,0,1-12.7,1.35,54.16,54.16,0,0,1-10.36-.82,43.64,43.64,0,0,1-12.69-4.36,36.1,36.1,0,0,1-14.23-13.37,39.22,39.22,0,0,1-4.12-10,49.52,49.52,0,0,1-1.48-11.67,57.45,57.45,0,0,1,5.3-24.67c3.62-7.83,9.32-14.77,16.44-18.52l1.34-.69,1.5-.6,1.48-.61.74-.32.77-.22,3.06-.92,3.12-.6a43.58,43.58,0,0,1,12.49-.11,44,44,0,0,1,11.67,3.63l2.68,1.38,2.51,1.62A20.6,20.6,0,0,1,254.77,68,20.26,20.26,0,0,1,257,69.92,41.76,41.76,0,0,1,268.82,88.8a52.11,52.11,0,0,1-1.5,34,48.11,48.11,0,0,1-4.8,9.07,59.71,59.71,0,0,1-8.07,9.31,22.24,22.24,0,0,0-2.15,2.36,4.22,4.22,0,0,0-.92,1.72,4.84,4.84,0,0,0,.73,3.2c.56,1.18,1,2.13,2.08,2.52a4.85,4.85,0,0,0,2.24.12,15.6,15.6,0,0,0,3.75-1.25,38.32,38.32,0,0,0,12.64-10,54.74,54.74,0,0,0,7.4-11.23A63.83,63.83,0,0,0,285.77,111.72Z"/><path class="cls-2" d="M90.76,306.38c-1.4.57-2.82,1.14-4.15,1.56a14.36,14.36,0,0,1-3.28.75,26.57,26.57,0,0,1-8.17-.72,21.09,21.09,0,0,1-3.8-1.38,12.37,12.37,0,0,1-2.9-1.92,5.33,5.33,0,0,1-2-4.24,9.68,9.68,0,0,1,.68-3.15,29,29,0,0,1,2.13-4.34c.91-1.58,2.06-3.38,3.19-5.13s2.34-3.55,3.57-5.34C81,275.31,86.3,268,91.82,260.72c11.08-14.58,22.37-28.34,33.26-40.53s21.45-22.77,31.06-30.83a100.6,100.6,0,0,1,18.48-12.77,54.33,54.33,0,0,1,9.72-3.87c.5-.15.95-.28,1.35-.43a9.69,9.69,0,0,0,1-.4,4.22,4.22,0,0,0,1.39-.94,6.1,6.1,0,0,0,1.22-3c.27-1.29.52-2.29-.08-3.25a3.83,3.83,0,0,0-1.7-1.36,10.13,10.13,0,0,0-1.56-.58,20.27,20.27,0,0,0-2.13-.41c-3.2-.37-8.08,0-14.33,2.25s-13.82,6.25-22.76,12.67c-11.2,8.05-22.87,18.68-34.62,31a490.58,490.58,0,0,0-35,41.36C71.45,257.13,66,264.68,61,272.31c-1.27,1.91-2.51,3.83-3.72,5.78s-2.39,3.86-3.59,6.07a44.64,44.64,0,0,0-3.29,7.31,26.8,26.8,0,0,0-1.47,9.23,20.64,20.64,0,0,0,.7,5l.31,1.22c.14.4.3.8.45,1.2a18.34,18.34,0,0,0,1,2.31,23.43,23.43,0,0,0,6,7.34,32.28,32.28,0,0,0,14.22,6.45,41.28,41.28,0,0,0,13.68.38,29.52,29.52,0,0,0,6.8-1.95c1.88-.76,3.53-1.56,5.12-2.35,5-2.56,9-4.92,12.44-6.91s6.37-3.69,8.83-5.06c4.93-2.74,8.09-4.24,10-5.18s2.65-1.5,3.16-2.31a7.94,7.94,0,0,0,.94-3.1c.2-1.3.43-2.32-.36-3.24s-2.76-1.69-6-1.5-7.56,1.24-13.33,3.53c-2.88,1.14-6.12,2.58-9.8,4.29S95.28,304.5,90.76,306.38Z"/><path class="cls-2" d="M381.85,357a136.31,136.31,0,0,0,14.33,4.23c2.54.54,5.06,1.14,7.82,1.56a59.06,59.06,0,0,0,8.85.79,38,38,0,0,0,10-1.23,29.59,29.59,0,0,0,10.19-5,24.92,24.92,0,0,0,7.79-9.9,22.79,22.79,0,0,0,1.23-13.54,28.19,28.19,0,0,0-5.39-11.35,33.33,33.33,0,0,0-4.2-4.45,38.69,38.69,0,0,0-4.78-3.47c-6.55-4-13.27-5.74-19.09-7.43-11.63-3.32-23.26-6.82-33.73-12a72.91,72.91,0,0,1-14.16-9,48.91,48.91,0,0,1-10.29-11.64c-5.45-8.66-8.08-19.69-11.05-30.84a176.52,176.52,0,0,0-5.2-16.87,96.92,96.92,0,0,0-7.77-15.71,99.44,99.44,0,0,0-20.51-23.93A110.57,110.57,0,0,0,289,175.55c-1.31-.69-2.6-1.32-3.83-1.94s-2.4-1.24-3.6-1.69l-3.4-1.4a33.84,33.84,0,0,0-3.18-1.19,66.86,66.86,0,0,0-17.84-3.86c-3.86-.15-5.83.31-6.85,1s-1.11,1.73-1.25,3c-.3,2.63-.35,4.08,6.15,6.19,3.19,1.26,8.1,2.57,15,5.77.87.35,1.75.8,2.65,1.27l2.84,1.45c1,.47,2,1.11,3,1.7l3.18,1.89a104,104,0,0,1,13.86,10.79,89.76,89.76,0,0,1,16.36,21,82.91,82.91,0,0,1,6,13.13c1.62,4.72,2.95,9.86,4.28,15.35s2.67,11.34,4.53,17.44A82,82,0,0,0,334.92,284,66.44,66.44,0,0,0,349,300.22a88.51,88.51,0,0,0,17.75,11.4c12.45,6.14,25.09,9.77,37,13.05,5.93,1.59,11,3.06,14.68,5.25a19.81,19.81,0,0,1,2.44,1.68,15.17,15.17,0,0,1,1.87,1.89,10.75,10.75,0,0,1,2.16,4.1,5.29,5.29,0,0,1-.1,3.13,7.78,7.78,0,0,1-2.32,3,12.73,12.73,0,0,1-4.19,2.25,21.31,21.31,0,0,1-5.57.87,44.64,44.64,0,0,1-6.42-.33c-2.23-.24-4.56-.69-6.79-1.05-4.48-.86-8.77-1.89-12.84-3.1a131.49,131.49,0,0,1-28.82-12.58C351.16,326,346.93,323,344,321.09c-.74-.46-1.4-.85-2-1.17s-1.11-.61-1.58-.83a5.71,5.71,0,0,0-2.29-.59c-1.22,0-1.94.75-2.86,1.69s-1.63,1.69-1.53,2.93a5.71,5.71,0,0,0,.85,2.32,17.57,17.57,0,0,0,1,1.6c.44.58,1,1.22,1.6,1.93a78.53,78.53,0,0,0,13.51,11.8A127.66,127.66,0,0,0,381.85,357Z"/><path class="cls-2" d="M151.4,228.39A127.08,127.08,0,0,1,157,206a76.5,76.5,0,0,1,4.93-11.11c.49-.89,1-1.77,1.53-2.61s1.08-1.67,1.65-2.48,1.18-1.56,1.77-2.32,1.36-1.58,1.7-1.86a23,23,0,0,1,4.25-2.9,53.75,53.75,0,0,1,5.74-2.7,95.34,95.34,0,0,1,13.3-4.15,137.21,137.21,0,0,1,29.45-3.66,113.43,113.43,0,0,1,29.12,3.09,79.31,79.31,0,0,1,12.93,4.43,60.25,60.25,0,0,1,11.1,6.44,51.11,51.11,0,0,1,8.75,8.27,48.73,48.73,0,0,1,6.2,9.68,63.83,63.83,0,0,1,5.84,21c.33,2.73.49,5.51.62,8s.17,4.95.17,7.19c0,4.49-.12,8.36-.26,11.7-.31,6.68-.57,11.19-.5,14.24.11,6.11,1.57,6.38,4.17,6.81s4.1.72,6.11-5.23a96.6,96.6,0,0,0,3.2-14.52c.54-3.5,1.06-7.61,1.43-12.46.19-2.43.32-5,.41-7.85s.09-5.78-.09-9.13a75.47,75.47,0,0,0-6-26.71,64.19,64.19,0,0,0-7.85-13.39,67.17,67.17,0,0,0-11.51-11.6,76.12,76.12,0,0,0-14.27-8.77A95.47,95.47,0,0,0,255,157.64,126.51,126.51,0,0,0,221,153.78a147.45,147.45,0,0,0-33.53,4.39,108.46,108.46,0,0,0-15.84,5.25,69.85,69.85,0,0,0-7.69,3.85,38.74,38.74,0,0,0-7.62,5.66,44.18,44.18,0,0,0-3.11,3.55c-.85,1.14-1.72,2.28-2.47,3.44s-1.51,2.31-2.15,3.48-1.3,2.33-1.89,3.49a88.91,88.91,0,0,0-5.52,13.85,128.39,128.39,0,0,0-5,25.76,132.58,132.58,0,0,0,.38,29.64,61.25,61.25,0,0,0,3.62,15,17.3,17.3,0,0,0,1.81,3.42,4.73,4.73,0,0,0,1.65,1.51c1,.51,2,.16,3.26-.26s2.22-.77,2.8-1.72a4.52,4.52,0,0,0,.56-1.95,21.71,21.71,0,0,0,0-3.4c-.14-2.88-.57-7.15-.73-13.64A148.48,148.48,0,0,1,151.4,228.39Z"/><path class="cls-2" d="M216.59,303c7,.91,16.33,1.62,26.26,2s19.29.38,26.34,0c11.26-.6,11.28-1.12,11.41-4.5s.14-3.89-11-5.34c-7-.9-16.33-1.61-26.26-2s-19.29-.37-26.34,0c-11.26.61-11.28,1.12-11.41,4.5S205.41,301.57,216.59,303Z"/><path class="cls-2" d="M172.34,303.07a8.26,8.26,0,0,0,7.83.6c1.75-.9,1.79-1.42,2.05-4.78s.3-3.88-1.3-5a7.53,7.53,0,0,0-3.83-1.29,7.64,7.64,0,0,0-4,.69c-1.75.9-1.79,1.41-2,4.78S170.75,301.91,172.34,303.07Z"/><path class="cls-2" d="M261.12,193a37.6,37.6,0,0,0-14-9.85,44.8,44.8,0,0,0-9.53-2.6,43.06,43.06,0,0,0-10.54-.18,48.37,48.37,0,0,0-10,2.37,51.46,51.46,0,0,0-8.69,4.06,56.5,56.5,0,0,0-12.66,10.17c-5.06,5.51-6.88,8.75-7.47,10.58s.23,2.42,1.59,3.43,2.15,1.56,3.7.65,3.82-3.37,8.88-7.46a67.75,67.75,0,0,1,11.42-7.45,50.28,50.28,0,0,1,7-2.9,43,43,0,0,1,7.64-1.69,36,36,0,0,1,7.56,0,39.94,39.94,0,0,1,7.1,1.61,34.42,34.42,0,0,1,11,6.16c4.4,3.91,5.65,6.72,6.8,7.87s2.09,1,3.71.54,2.58-.68,2.59-2.76a13.18,13.18,0,0,0-1.11-4.67A29.62,29.62,0,0,0,261.12,193Z"/><path class="cls-2" d="M121.18,368.67a46.6,46.6,0,0,0,1.23,12.07,29.12,29.12,0,0,0,2.59,6.68,27,27,0,0,0,4.58,6.08,35.53,35.53,0,0,0,11.9,7.53,83.57,83.57,0,0,0,11.92,3.63l5.8,1.39c2,.47,3.93.83,5.92,1.25,4,.87,8,1.47,12.15,2.19,2.06.31,4.14.57,6.23.86l3.14.42,3.18.33c2.12.21,4.25.45,6.4.63l6.49.45A276.09,276.09,0,0,0,256.86,410c9.25-1.32,18.56-3.08,27.86-5.37,2.32-.59,4.63-1.23,7-1.85s4.71-1.31,7.14-2.12a61.19,61.19,0,0,0,14.93-7,37.6,37.6,0,0,0,7.07-6.05,30.93,30.93,0,0,0,5.39-8.22,36.5,36.5,0,0,0,2.65-8.9,57.85,57.85,0,0,0,.77-8.18c.08-2.59,0-5,0-7.3s0-4.59-.07-6.88q-.07-6.86-.15-13.64-.18-13.54-.34-26.71l0-3.28,0-1.63,0-.86L329,301a34,34,0,0,0-1.5-8.57,34.58,34.58,0,0,0-3.54-7.86,34.48,34.48,0,0,0-12-11.78,34.56,34.56,0,0,0-7.62-3.33,37.55,37.55,0,0,0-4-1l-3.12-.5-6.14-1c-4.08-.58-8.11-1.13-12.09-1.61s-7.92-.93-11.8-1.23c-15.53-1.41-30.2-1.91-43.72-1.82-5.41,0-10.47.21-15.21.33l-6.88.34c-2.21.11-4.35.23-6.41.4-4.12.3-7.95.57-11.49.94s-6.82.67-9.83,1.07c-6,.71-11,1.52-15.18,2.21S151,269,148.4,269.65c-10.48,2.68-10.2,4.2-9.77,6.78s.7,4.06,11.25,3.51c2.65-.08,5.93-.32,10-.61s9-.65,14.91-1c3-.2,6.14-.33,9.6-.48s7.19-.27,11.2-.37c2-.08,4.09-.1,6.24-.11l6.68-.06c4.61.07,9.52,0,14.75.26,13.11.4,27.26,1.33,42.19,3.06,3.74.38,7.51,1,11.34,1.45s7.68,1.17,11.59,1.8l5.87,1.05,2.94.53a19.48,19.48,0,0,1,2,.54,17,17,0,0,1,3.75,1.72,16.81,16.81,0,0,1,5.8,5.93,17.4,17.4,0,0,1,1.67,3.86,16.81,16.81,0,0,1,.66,4.19l0,.53V308q0,13.14.09,26.71,0,6.76.07,13.64c0,2.28,0,4.58,0,6.88s0,4.5,0,6.54a27,27,0,0,1-1.84,10.12,15.65,15.65,0,0,1-5.92,6.53A43.8,43.8,0,0,1,293,383.22c-2,.66-4.05,1.28-6.25,1.86l-6.48,1.75c-8.67,2.17-17.35,3.85-26,5.16a268.77,268.77,0,0,1-50.66,2.6l-6.09-.32c-2-.14-4-.33-6-.49l-3-.25-3-.34c-2-.24-3.92-.44-5.85-.7-3.87-.59-7.7-1.07-11.44-1.81-1.87-.35-3.75-.64-5.58-1l-5.48-1.18a69.28,69.28,0,0,1-9.79-2.65,20.06,20.06,0,0,1-6.69-3.8,10.37,10.37,0,0,1-1.93-2.34,13.08,13.08,0,0,1-1.29-3,32.59,32.59,0,0,1-1.06-8.13c-.07-2.38,0-5,0-7.47s0-4.91,0-7.25c0-4.68,0-9,.06-13.12,0-8.14,0-15.13,0-21.11-.07-12-.28-20-.67-25.3-.78-10.66-2.3-10.7-4.92-10.77s-4.14-.1-5.47,10.5c-.67,5.31-1.29,13.27-2,25.23-.34,6-.71,12.95-1.1,21.09q-.28,6.1-.62,13.1l-.33,7.24C121.36,363.16,121.2,365.73,121.18,368.67Z"/><path class="cls-2" d="M159.89,456.37A95.78,95.78,0,0,0,171,416.25c.09-4.51-.14-6.79-1-8.06s-2.34-1.52-4.93-2-4.08-.7-5.31.17-2.16,2.85-3.78,6.82a228.61,228.61,0,0,0-10.49,38.06c-.65,4.24-.86,6.43-.25,7.8s2,1.92,4.47,2.87,3.86,1.49,5.24.84S157.66,460.29,159.89,456.37Z"/><path class="cls-2" d="M316.43,447c-.36-2.78-.85-6-1.5-9.41s-1.34-7.14-2.12-10.94-1.54-7.49-2.32-10.9-1.54-6.54-2.29-9.25c-1.24-4.31-2-6.5-3.09-7.54s-2.64-1-5.26-.82-4.13.23-5.11,1.46S293.29,403.2,293,408a74.69,74.69,0,0,0,.11,10.29,101.15,101.15,0,0,0,1.7,12A104.71,104.71,0,0,0,297.89,442a73.9,73.9,0,0,0,3.92,9.51c2.18,4.29,3.55,6.31,4.93,7.07s2.81.24,5.28-.65,3.89-1.4,4.52-2.81S317,451.43,316.43,447Z"/><path class="cls-2" d="M414,436.75a312.62,312.62,0,0,0,1.89-33.15,311.11,311.11,0,0,0-1.23-33.19c-1.45-14.17-2.26-14.17-7.51-14.23s-6.06-.06-7.79,14.08a353.45,353.45,0,0,0-.66,66.34c1.45,14.17,2.25,14.18,7.5,14.23S412.27,450.89,414,436.75Z"/><path class="cls-2" d="M415.37,299.18c1.11-10.74,1.8-25,2-40.25s-.26-29.51-1.15-40.28c-1.43-17.19-2.24-17.2-7.49-17.26s-6.05-.06-7.82,17.11c-1.11,10.75-1.8,25-1.95,40.25s.25,29.51,1.15,40.28c1.42,17.2,2.22,17.21,7.47,17.26S413.61,316.35,415.37,299.18Z"/></svg>