<?xml version="1.0" encoding="utf-8"?>
<!-- Generator: Adobe Illustrator 14.0.0, SVG Export Plug-In . SVG Version: 6.00 Build 43363)  -->
<!DOCTYPE svg PUBLIC "-//W3C//DTD SVG 1.1//EN" "http://www.w3.org/Graphics/SVG/1.1/DTD/svg11.dtd">
<svg version="1.1" id="Layer_1" xmlns="http://www.w3.org/2000/svg" xmlns:xlink="http://www.w3.org/1999/xlink" x="0px" y="0px"
	 width="233.667px" height="49.223px" viewBox="0 0 233.667 49.223" enable-background="new 0 0 233.667 49.223"
	 xml:space="preserve">
<g>
	<path fill="#010101" d="M230.797,32.843c-0.72,0-1.309,0.589-1.309,1.307c0,0.72,0.582,1.309,1.309,1.309
		c0.721,0,1.309-0.58,1.309-1.309C232.097,33.425,231.518,32.843,230.797,32.843z M230.797,35.246c-0.608,0-1.1-0.494-1.1-1.101
		c0-0.611,0.491-1.101,1.1-1.101c0.609,0,1.101,0.489,1.101,1.101C231.897,34.752,231.406,35.246,230.797,35.246z M231.219,33.923
		c0-0.235-0.166-0.38-0.415-0.38h-0.414v1.191h0.199v-0.431h0.222l0.216,0.431h0.219l-0.235-0.48
		C231.144,34.2,231.219,34.089,231.219,33.923z M230.797,34.118h-0.199v-0.396h0.199c0.139,0,0.223,0.07,0.223,0.192
		C231.02,34.048,230.929,34.118,230.797,34.118z M73.587,19.641v-3.156h-4.836v18.775h4.836V24c0-2.042,1.309-3.038,3.35-3.038h2.65
		v-4.478h-2.263C75.553,16.484,74.01,17.405,73.587,19.641z M84.113,9.06c-1.654,0-2.927,1.308-2.927,2.962
		c0,1.619,1.266,2.926,2.927,2.926s2.928-1.308,2.928-2.926C87.041,10.367,85.773,9.06,84.113,9.06z M81.705,35.259h4.831V16.484
		h-4.831V35.259z M109.523,25.867c0,5.357-4.346,9.703-9.702,9.703c-2.166,0-4.125-0.705-5.695-1.904v7.101h-4.831V16.484h4.831
		v1.592c1.57-1.197,3.536-1.903,5.695-1.903C105.177,16.166,109.523,20.512,109.523,25.867z M104.666,25.867
		c0-2.913-2.359-5.272-5.273-5.272c-2.913,0-5.272,2.359-5.272,5.272c0,2.914,2.359,5.273,5.272,5.273
		C102.306,31.141,104.666,28.781,104.666,25.867z M193.423,24.221l-2.817-0.775c-1.856-0.485-2.577-1.052-2.577-2.028
		c0-0.954,1.019-1.619,2.463-1.619c1.386,0,2.464,0.907,2.464,2.063v0.11h4.451v-0.11c0-3.405-2.776-5.696-6.915-5.696
		c-4.094,0-7.071,2.284-7.071,5.439c0,2.45,1.628,4.298,4.463,5.066l2.699,0.734c2.049,0.568,2.81,1.198,2.81,2.325
		c0,1.191-1.101,1.986-2.74,1.986c-1.709,0-2.86-1.08-2.86-2.686v-0.111h-4.719v0.111c0,3.847,3.102,6.54,7.544,6.54
		c4.275,0,7.381-2.629,7.381-6.247C198.001,27.557,197.207,25.231,193.423,24.221z M126.644,16.484h4.83v18.775h-4.83v-1.594
		c-1.569,1.2-3.535,1.904-5.695,1.904c-5.356,0-9.702-4.345-9.702-9.703c0-5.355,4.346-9.701,9.702-9.701
		c2.165,0,4.125,0.706,5.695,1.903V16.484z M126.644,25.867L126.644,25.867c0-2.913-2.359-5.272-5.273-5.272
		c-2.912,0-5.272,2.359-5.272,5.272c0,2.914,2.36,5.273,5.272,5.273C124.291,31.141,126.644,28.781,126.644,25.867z M148.906,9.8
		h4.83v25.459h-4.83v-1.594c-1.571,1.2-3.537,1.904-5.695,1.904c-5.357,0-9.702-4.345-9.702-9.703c0-5.355,4.345-9.701,9.702-9.701
		c2.158,0,4.124,0.706,5.695,1.903V9.8z M148.906,25.867c0-2.913-2.362-5.272-5.273-5.272c-2.912,0-5.273,2.359-5.273,5.272
		c0,2.914,2.361,5.273,5.273,5.273C146.544,31.141,148.906,28.781,148.906,25.867z M176.143,35.259h4.832V16.484h-4.832V35.259z
		 M178.556,9.06c-1.653,0-2.925,1.308-2.925,2.962c0,1.619,1.266,2.926,2.925,2.926c1.662,0,2.93-1.308,2.93-2.926
		C181.477,10.367,180.211,9.06,178.556,9.06z M218.867,25.867c0,5.357-4.346,9.703-9.703,9.703c-5.354,0-9.7-4.345-9.7-9.703
		c0-5.355,4.345-9.701,9.7-9.701C214.521,16.166,218.867,20.512,218.867,25.867z M214.431,25.867c0-2.913-2.358-5.272-5.273-5.272
		c-2.914,0-5.273,2.359-5.273,5.272c0,2.914,2.359,5.273,5.273,5.273C212.072,31.141,214.431,28.781,214.431,25.867z M71.117,9.8
		H52.599v4.304h6.858V35.25h4.81V14.104h6.857L71.117,9.8L71.117,9.8z M164.758,30.117l-4.297-13.633h-5.063l6.442,18.775h5.805
		l6.478-18.775h-5.072L164.758,30.117z M225.938,19.641v-3.156h-4.837v18.775h4.837V24c0-2.042,1.309-3.038,3.351-3.038h2.649
		v-4.478h-2.262C227.899,16.484,226.361,17.405,225.938,19.641z"/>
	<circle fill="#60C196" cx="24.684" cy="24.539" r="24.684"/>
	<path fill="#010101" d="M39.929,19.723l2.975-3.239h-6.602c-3.308-2.255-7.301-3.578-11.619-3.578
		c-4.311,0-8.297,1.322-11.597,3.578H6.463l2.975,3.239c-1.826,1.667-2.968,4.069-2.968,6.733c0,5.031,4.076,9.107,9.107,9.107
		c2.388,0,4.567-0.919,6.186-2.427l2.921,3.174l2.92-3.174c1.627,1.508,3.799,2.42,6.187,2.42c5.031,0,9.114-4.076,9.114-9.107
		C42.904,23.785,41.755,21.384,39.929,19.723z M15.577,32.615c-3.404,0-6.159-2.762-6.159-6.159c0-3.397,2.762-6.159,6.159-6.159
		s6.159,2.761,6.159,6.159C21.736,29.853,18.981,32.615,15.577,32.615z M24.684,26.271c0-4.057-2.948-7.537-6.843-9.024
		c2.104-0.88,4.414-1.371,6.837-1.371c2.421,0,4.733,0.491,6.844,1.371C27.632,18.741,24.684,22.214,24.684,26.271z M33.791,32.615
		c-3.405,0-6.159-2.762-6.159-6.159c0-3.397,2.761-6.159,6.159-6.159s6.159,2.761,6.159,6.159
		C39.95,29.853,37.195,32.615,33.791,32.615z M33.791,23.218c-1.785,0-3.232,1.446-3.232,3.231c0,1.787,1.447,3.231,3.232,3.231
		c1.786,0,3.231-1.444,3.231-3.231C37.022,24.664,35.576,23.218,33.791,23.218z M18.808,26.449c0,1.787-1.446,3.231-3.231,3.231
		c-1.786,0-3.232-1.444-3.232-3.231c0-1.785,1.447-3.231,3.232-3.231C17.362,23.218,18.808,24.664,18.808,26.449z"/>
</g>
</svg>
